<svg width="117" height="48" viewBox="0 0 117 48" fill="none" xmlns="http://www.w3.org/2000/svg">
<path d="M0.183594 29.7841V0.57843H17.3844V29.7699H0.183594V29.7841ZM15.3004 22.9894L15.7429 19.7634L14.1441 19.6064L13.6588 22.0902C12.6595 22.5898 11.4319 22.8324 9.96166 22.8324C7.96322 22.8324 6.37874 22.2044 5.2225 20.9339C4.05199 19.6635 3.48101 17.9934 3.48101 15.9093C3.48101 13.8823 4.05199 12.2122 5.17968 10.8989C6.30737 9.58566 7.79196 8.92903 9.63337 8.92903C10.5755 8.92903 11.3748 9.04323 12.0172 9.25735C12.6596 9.47147 13.2448 9.75696 13.8015 10.1281L14.2726 12.5833L15.8999 12.4263L15.4288 9.20025C14.7437 8.615 13.93 8.14394 12.9879 7.7728C12.0457 7.41593 10.8752 7.23036 9.49062 7.23036C7.84905 7.23036 6.43587 7.63005 5.25108 8.4437C4.06629 9.25735 3.13845 10.3279 2.48182 11.6555C1.82519 12.9973 1.49687 14.439 1.49687 15.9807C1.49687 18.4216 2.25342 20.4629 3.76652 22.0902C5.27962 23.7175 7.24949 24.5311 9.69044 24.5311C12.0886 24.5311 13.9586 24.0172 15.3004 22.9894Z" fill="#292F36"/>
<path d="M23.2227 29.7841V0.57843H30.6169V29.7699H23.2227V29.7841ZM24.0077 24.2742H29.846V22.8039H27.8333V6.50236H23.9792V7.97264H26.0205V22.8039H24.0077V24.2742Z" fill="#292F36"/>
<path d="M36.4551 29.7841V0.57843H49.4449V29.7699H36.4551V29.7841ZM38.8104 13.6539L38.3964 16.309L39.8952 16.4945L40.3378 14.5104C40.9801 14.1963 41.7081 14.0393 42.5646 14.0393C43.5923 14.0393 44.2918 14.2963 44.6487 14.8101C45.0056 15.324 45.1768 15.9949 45.1768 16.8229V17.8506C44.8628 17.8221 44.5345 17.7935 44.1776 17.7792C43.8207 17.765 43.4782 17.7507 43.1356 17.7507C41.8509 17.7507 40.6232 17.9791 39.4813 18.4359C38.3393 18.8927 37.7684 19.8491 37.7684 21.2908C37.7684 22.5184 38.1538 23.3606 38.9389 23.8174C39.724 24.2884 40.4948 24.5168 41.2513 24.5168C42.1792 24.5168 42.9785 24.2742 43.6352 23.7888C44.2918 23.3035 44.8057 22.7611 45.1768 22.133V22.1901C45.2054 23.746 45.9048 24.5168 47.2752 24.5168C47.8034 24.5168 48.3029 24.3884 48.774 24.1314L48.7455 22.9466C48.5171 23.0465 48.2601 23.1036 47.9746 23.1036C47.318 23.1036 46.9897 22.6897 46.9897 21.8618V16.3946C46.9897 13.8252 45.6193 12.5405 42.8786 12.5405C42.1221 12.5405 41.4083 12.6261 40.7374 12.7974C40.0523 12.983 39.4099 13.2685 38.8104 13.6539ZM45.1626 19.9632C45.0912 20.9054 44.7058 21.6619 44.0063 22.2043C43.3069 22.7611 42.5646 23.0323 41.7652 23.0323C41.2656 23.0323 40.7803 22.8895 40.3235 22.6183C39.8524 22.3471 39.624 21.8332 39.624 21.0909C39.624 20.1916 39.9809 19.6207 40.6661 19.3494C41.3655 19.0782 42.1363 18.9498 43.0071 18.9498C43.3925 18.9498 43.7636 18.964 44.1205 19.0069C44.4774 19.0354 44.8342 19.064 45.1483 19.0782V19.9632H45.1626Z" fill="#292F36"/>
<path d="M55.2969 29.7841V0.57843H67.1019V29.7699H55.2969V29.7841ZM65.86 20.9482C65.86 20.0346 65.6173 19.3637 65.132 18.9212C64.6467 18.4787 64.0614 18.1789 63.3477 18.0076C62.634 17.8363 61.9345 17.6936 61.2351 17.5794C60.5356 17.4652 59.9361 17.2796 59.4508 17.037C58.9654 16.7943 58.7228 16.3661 58.7228 15.7523C58.7228 15.167 58.9511 14.7388 59.4222 14.4533C59.8933 14.1678 60.4785 14.0393 61.2065 14.0393C62.0487 14.0393 62.8338 14.2249 63.5618 14.6103L63.8474 16.466L65.3462 16.2804L65.0607 13.5968C64.5753 13.297 63.9901 13.0544 63.2906 12.8545C62.5912 12.6547 61.8489 12.5405 61.0495 12.5405C59.9932 12.5405 59.0225 12.7974 58.1232 13.297C57.224 13.7966 56.7814 14.6531 56.7814 15.8807C56.7814 16.78 57.0241 17.4367 57.5094 17.8506C57.9947 18.2789 58.5943 18.5643 59.3223 18.7356C60.0503 18.9069 60.764 19.0497 61.4777 19.1782C62.1915 19.2923 62.791 19.4922 63.2763 19.7491C63.7617 20.0061 64.0043 20.4486 64.0043 21.0909C64.0043 21.7476 63.6903 22.2329 63.0622 22.5469C62.4341 22.861 61.7204 23.018 60.9068 23.018C59.9932 23.018 59.1367 22.8324 58.3516 22.447L58.423 20.9196L56.9813 20.7626L56.6244 23.3749C57.124 23.7032 57.7806 23.9744 58.58 24.1885C59.3794 24.4026 60.1788 24.5168 60.9924 24.5168C62.377 24.5168 63.5333 24.2028 64.4611 23.5604C65.389 22.9466 65.86 22.0616 65.86 20.9482Z" fill="#292F36"/>
<path d="M72.9414 29.7841V0.57843H84.7464V29.7699H72.9414V29.7841ZM83.5045 20.9482C83.5045 20.0346 83.2618 19.3637 82.7765 18.9212C82.2912 18.4787 81.7059 18.1789 80.9922 18.0076C80.2785 17.8363 79.579 17.6936 78.8796 17.5794C78.1801 17.4652 77.5806 17.2796 77.0953 17.037C76.6099 16.7943 76.3672 16.3661 76.3672 15.7523C76.3672 15.167 76.5956 14.7388 77.0667 14.4533C77.5377 14.1678 78.123 14.0393 78.851 14.0393C79.6932 14.0393 80.4783 14.2249 81.2063 14.6103L81.4918 16.466L82.9906 16.2804L82.7051 13.5968C82.2198 13.297 81.6346 13.0544 80.9351 12.8545C80.2357 12.6547 79.4934 12.5405 78.694 12.5405C77.6377 12.5405 76.667 12.7974 75.7677 13.297C74.8684 13.7966 74.4259 14.6531 74.4259 15.8807C74.4259 16.78 74.6686 17.4367 75.1539 17.8506C75.6393 18.2789 76.2388 18.5643 76.9668 18.7356C77.6948 18.9069 78.4085 19.0497 79.1222 19.1782C79.8359 19.2923 80.4355 19.4922 80.9208 19.7491C81.4062 20.0061 81.6488 20.4486 81.6488 21.0909C81.6488 21.7476 81.3348 22.2329 80.7068 22.5469C80.0787 22.861 79.3649 23.018 78.5513 23.018C77.6377 23.018 76.7812 22.8324 75.9961 22.447L76.0675 20.9196L74.6258 20.7626L74.2689 23.3749C74.7685 23.7032 75.4252 23.9744 76.2245 24.1885C77.0239 24.4026 77.8233 24.5168 78.6369 24.5168C80.0216 24.5168 81.1778 24.2028 82.1056 23.5604C83.0335 22.9466 83.5045 22.0616 83.5045 20.9482Z" fill="#292F36"/>
<path d="M90.584 29.7841V0.57843H98.3636V29.7699H90.584V29.7841ZM91.7259 24.2742H97.5643V22.8039H95.5515V12.7832H91.6832V14.2534H93.7529V22.8039H91.7402V24.2742H91.7259ZM93.5531 7.45876V9.81406H95.523V7.45876H93.5531Z" fill="#292F36"/>
<path d="M104.203 29.7841V0.57843H116.636V29.7699H104.203V29.7841ZM115.523 20.4058L113.967 20.0632C113.624 22.0045 112.582 22.9752 110.869 22.9752C109.727 22.9752 108.857 22.5898 108.257 21.8189C107.658 21.0481 107.358 19.9632 107.358 18.5929C107.358 17.351 107.629 16.2947 108.157 15.4097C108.685 14.5247 109.57 14.0964 110.798 14.0964C111.74 14.0964 112.568 14.3105 113.253 14.7388L113.696 16.6801L115.195 16.4945L114.752 13.7253C114.167 13.2828 113.553 12.9687 112.911 12.7974C112.268 12.6261 111.569 12.5405 110.812 12.5405C109.028 12.5405 107.672 13.1686 106.787 14.4247C105.888 15.6809 105.445 17.1083 105.445 18.6928C105.445 20.5342 105.916 21.976 106.872 22.9894C107.815 24.0172 109.085 24.5311 110.67 24.5311C112.254 24.5311 113.425 24.0886 114.167 23.2178C114.909 22.3328 115.366 21.405 115.523 20.4058Z" fill="#292F36"/>
<path d="M7.62067 45.7287C7.29236 46.3283 6.80701 46.7993 6.17893 47.1276C5.53658 47.456 4.78002 47.6273 3.895 47.6273H1.33984V39.5764H3.895C4.78002 39.5764 5.55085 39.7334 6.17893 40.0618C6.80701 40.3901 7.29236 40.8468 7.62067 41.4607C7.94899 42.0745 8.106 42.7739 8.106 43.6018C8.106 44.4155 7.94899 45.1292 7.62067 45.7287ZM6.20747 45.8858C6.76417 45.3433 7.03541 44.5868 7.03541 43.6018C7.03541 42.6169 6.76417 41.8603 6.20747 41.3179C5.65076 40.7755 4.85138 40.5043 3.79507 40.5043H2.35337V46.6994H3.79507C4.85138 46.6994 5.65076 46.4282 6.20747 45.8858Z" fill="#292F36"/>
<path d="M13.4014 40.4186V43.1736H16.4562V43.973H13.4014V46.7851H16.7988V47.6273H12.3594V39.5764H16.7988V40.4186H13.4014Z" fill="#292F36"/>
<path d="M25.82 46.5996C25.6344 46.9279 25.3632 47.1991 24.9921 47.3989C24.6209 47.5988 24.1641 47.713 23.6074 47.713C23.0793 47.713 22.5939 47.6131 22.18 47.4275C21.766 47.2276 21.4377 46.9707 21.1808 46.6281C20.9381 46.2855 20.7953 45.9001 20.7525 45.4719H21.8659C21.8945 45.7003 21.9659 45.9287 22.0943 46.1428C22.2228 46.3569 22.4226 46.5425 22.6653 46.6852C22.908 46.828 23.2077 46.8993 23.5646 46.8993C24.0214 46.8993 24.3783 46.7851 24.621 46.5282C24.8636 46.2712 24.9921 45.9715 24.9921 45.5861C24.9921 45.2578 24.9064 44.9865 24.7351 44.7867C24.5638 44.5869 24.3497 44.4156 24.1071 44.3014C23.8644 44.1872 23.5075 44.0587 23.0793 43.916C22.5654 43.7447 22.1657 43.5876 21.8517 43.4449C21.5377 43.3021 21.2807 43.0738 21.0666 42.774C20.8524 42.4742 20.7383 42.0888 20.7383 41.6035C20.7383 41.1895 20.8382 40.8184 21.038 40.4901C21.2379 40.176 21.5233 39.9191 21.9088 39.7478C22.2799 39.5765 22.7367 39.4908 23.2363 39.4908C24.0214 39.4908 24.6637 39.6764 25.1205 40.0618C25.5916 40.4472 25.8485 40.9326 25.9342 41.5321H24.8208C24.7637 41.2181 24.5924 40.9326 24.3354 40.6899C24.0642 40.4472 23.7074 40.3188 23.2506 40.3188C22.8366 40.3188 22.494 40.433 22.2514 40.6471C21.9944 40.8612 21.8802 41.1752 21.8802 41.5607C21.8802 41.8747 21.9659 42.1316 22.1229 42.3172C22.2942 42.517 22.494 42.6598 22.7367 42.774C22.9794 42.8882 23.3219 43.0024 23.7359 43.1451C24.2498 43.3164 24.6638 43.4734 24.9921 43.6305C25.3061 43.7875 25.5773 44.0159 25.7914 44.3156C26.0056 44.6154 26.1198 45.0294 26.1198 45.5433C26.0912 45.9144 26.0056 46.2712 25.82 46.5996Z" fill="#292F36"/>
<path d="M31.3878 39.5764V47.6273H30.3457V39.5764H31.3878Z" fill="#292F36"/>
<path d="M41.9233 40.1903C42.5656 40.6614 42.9938 41.2895 43.208 42.0888H42.1088C41.9233 41.6035 41.5949 41.2038 41.1524 40.9183C40.7099 40.6186 40.1818 40.4758 39.568 40.4758C39.0255 40.4758 38.5259 40.6043 38.0977 40.8612C37.6694 41.1182 37.3269 41.475 37.0699 41.9461C36.8273 42.4172 36.6988 42.9739 36.6988 43.6162C36.6988 44.2728 36.8273 44.8438 37.0699 45.3149C37.3126 45.7859 37.6694 46.1571 38.1119 46.414C38.5545 46.671 39.0684 46.7994 39.6536 46.7994C40.1532 46.7994 40.5957 46.6852 41.0097 46.4854C41.4236 46.2713 41.7519 45.9572 42.0232 45.5576C42.2944 45.1579 42.4371 44.6725 42.4942 44.1301H39.3253V43.3593H43.365V44.3157C43.2936 44.958 43.0938 45.529 42.7655 46.0572C42.4371 46.5853 41.9946 46.985 41.4379 47.2848C40.8812 47.5845 40.2531 47.7416 39.5394 47.7416C38.7686 47.7416 38.0834 47.5703 37.4839 47.2277C36.8843 46.8851 36.4275 46.3998 36.0992 45.7717C35.7709 45.1579 35.5996 44.4441 35.5996 43.6448C35.5996 42.8454 35.7709 42.1317 36.0992 41.5179C36.4275 40.9041 36.8986 40.4044 37.4839 40.0619C38.0691 39.7193 38.7543 39.5337 39.5251 39.5337C40.4958 39.5051 41.2809 39.7335 41.9233 40.1903Z" fill="#292F36"/>
<path d="M53.8993 47.6273H52.8573L48.6748 41.2608V47.6273H47.6328V39.5764H48.6748L52.8573 45.9429V39.5764H53.8993V47.6273Z" fill="#292F36"/>
<path d="M68.9157 46.5996C68.7301 46.9279 68.4589 47.1991 68.0878 47.3989C67.7166 47.5988 67.2599 47.713 66.7032 47.713C66.175 47.713 65.6897 47.6131 65.2757 47.4275C64.8618 47.2276 64.5334 46.9707 64.2765 46.6281C64.0338 46.2855 63.8911 45.9001 63.8483 45.4719H64.9616C64.9902 45.7003 65.0616 45.9287 65.1901 46.1428C65.3186 46.3569 65.5183 46.5425 65.761 46.6852C66.0037 46.828 66.3035 46.8993 66.6603 46.8993C67.1171 46.8993 67.4739 46.7851 67.7166 46.5282C67.9593 46.2712 68.0878 45.9715 68.0878 45.5861C68.0878 45.2578 68.0021 44.9865 67.8308 44.7867C67.6595 44.5869 67.4454 44.4156 67.2028 44.3014C66.9601 44.1872 66.6033 44.0587 66.175 43.916C65.6611 43.7447 65.2614 43.5876 64.9474 43.4449C64.6333 43.3021 64.3764 43.0738 64.1623 42.774C63.9482 42.4742 63.834 42.0888 63.834 41.6035C63.834 41.1895 63.9339 40.8184 64.1337 40.4901C64.3335 40.176 64.6191 39.9191 65.0045 39.7478C65.3756 39.5765 65.8324 39.4908 66.332 39.4908C67.1171 39.4908 67.7595 39.6764 68.2163 40.0618C68.6873 40.4472 68.9443 40.9326 69.0299 41.5321H67.9165C67.8594 41.2181 67.688 40.9326 67.4311 40.6899C67.1599 40.4472 66.8031 40.3188 66.3463 40.3188C65.9324 40.3188 65.5897 40.433 65.3471 40.6471C65.0901 40.8612 64.9759 41.1752 64.9759 41.5607C64.9759 41.8747 65.0616 42.1316 65.2186 42.3172C65.3899 42.517 65.5897 42.6598 65.8324 42.774C66.075 42.8882 66.4176 43.0024 66.8316 43.1451C67.3455 43.3164 67.7595 43.4734 68.0878 43.6305C68.4018 43.7875 68.673 44.0159 68.8871 44.3156C69.1013 44.6154 69.2154 45.0294 69.2154 45.5433C69.1869 45.9144 69.1013 46.2712 68.9157 46.5996Z" fill="#292F36"/>
<path d="M78.3789 39.5764V40.4186H76.1092V47.6273H75.0529V40.4186H72.7832V39.5764H78.3789Z" fill="#292F36"/>
<path d="M83.2322 39.5764V44.4012C83.2322 45.1863 83.4035 45.7716 83.7603 46.157C84.1172 46.5281 84.5883 46.728 85.2164 46.728C85.8302 46.728 86.3012 46.5424 86.6438 46.157C86.9864 45.7716 87.1577 45.2006 87.1577 44.4155V39.5907H88.1998V44.4155C88.1998 45.5146 87.9286 46.3425 87.3861 46.885C86.8437 47.4417 86.1156 47.7129 85.2021 47.7129C84.3028 47.7129 83.5748 47.4417 83.0324 46.885C82.49 46.3283 82.2188 45.5146 82.2188 44.4155V39.5907H83.2322V39.5764Z" fill="#292F36"/>
<path d="M98.9487 45.7287C98.6204 46.3283 98.135 46.7993 97.507 47.1276C96.8646 47.456 96.1081 47.6273 95.2231 47.6273H92.668V39.5764H95.2231C96.1081 39.5764 96.8789 39.7334 97.507 40.0618C98.135 40.3901 98.6204 40.8468 98.9487 41.4607C99.277 42.0745 99.4341 42.7739 99.4341 43.6018C99.4341 44.4155 99.277 45.1292 98.9487 45.7287ZM97.5498 45.8858C98.1065 45.3433 98.3778 44.5868 98.3778 43.6018C98.3778 42.6169 98.1065 41.8603 97.5498 41.3179C96.9931 40.7755 96.1938 40.5043 95.1374 40.5043H93.6957V46.6994H95.1374C96.1795 46.6994 96.9931 46.4282 97.5498 45.8858Z" fill="#292F36"/>
<path d="M104.745 39.5764V47.6273H103.703V39.5764H104.745Z" fill="#292F36"/>
<path d="M114.965 40.0047C115.565 40.3616 116.036 40.8469 116.379 41.475C116.721 42.1031 116.892 42.8168 116.892 43.6019C116.892 44.387 116.721 45.1007 116.379 45.7288C116.036 46.3569 115.565 46.8422 114.965 47.1991C114.366 47.556 113.695 47.7272 112.953 47.7272C112.21 47.7272 111.525 47.556 110.926 47.1991C110.326 46.8422 109.841 46.3569 109.498 45.7288C109.156 45.1007 108.984 44.387 108.984 43.6019C108.984 42.8168 109.156 42.1031 109.498 41.475C109.841 40.8469 110.312 40.3616 110.926 40.0047C111.539 39.6479 112.21 39.4766 112.953 39.4766C113.695 39.4766 114.366 39.6479 114.965 40.0047ZM111.454 40.8326C111.011 41.0896 110.669 41.4464 110.426 41.9318C110.183 42.4028 110.055 42.9595 110.055 43.6019C110.055 44.23 110.183 44.7867 110.426 45.272C110.669 45.7574 111.011 46.1142 111.454 46.3712C111.896 46.6281 112.382 46.7566 112.938 46.7566C113.481 46.7566 113.98 46.6281 114.423 46.3712C114.865 46.1142 115.208 45.7431 115.451 45.272C115.693 44.801 115.822 44.2443 115.822 43.6162C115.822 42.9738 115.693 42.4171 115.451 41.9461C115.208 41.475 114.865 41.1039 114.423 40.8469C113.98 40.59 113.495 40.4615 112.938 40.4615C112.396 40.4472 111.896 40.5757 111.454 40.8326Z" fill="#292F36"/>
</svg>
