<svg width="104" height="103" viewBox="0 0 104 103" fill="none" xmlns="http://www.w3.org/2000/svg">
<path d="M51.9423 101.606C79.803 101.606 102.389 79.0206 102.389 51.16C102.389 23.2993 79.803 0.713745 51.9423 0.713745C24.0816 0.713745 1.49609 23.2993 1.49609 51.16C1.49609 79.0206 24.0816 101.606 51.9423 101.606Z" fill="white"/>
<path d="M51.9431 102.32C23.7367 102.32 0.783203 79.3664 0.783203 51.1599C0.783203 22.9535 23.7367 0 51.9431 0C80.1496 0 103.103 22.9535 103.103 51.1599C103.103 79.3664 80.1496 102.32 51.9431 102.32ZM51.9431 1.42745C24.5218 1.42745 2.21066 23.7386 2.21066 51.1599C2.21066 78.5813 24.5218 100.892 51.9431 100.892C79.3645 100.892 101.676 78.5813 101.676 51.1599C101.676 23.7386 79.3645 1.42745 51.9431 1.42745Z" fill="#292F36"/>
<path d="M59.1371 5.83827C59.4796 5.86682 59.7794 5.88109 60.0221 5.88109L59.9935 6.10949C59.5938 6.16658 59.2513 6.46635 58.98 7.03733L55.5827 13.832L55.4828 13.8177L55.3971 13.8035L53.2417 6.22368C53.0989 5.72407 52.8563 5.45286 52.5137 5.41003L52.5422 5.18164C52.8563 5.23874 53.2702 5.28156 53.7841 5.33866C54.455 5.39576 54.9546 5.43858 55.2829 5.43858L55.2544 5.66697C54.9546 5.6527 54.7405 5.66697 54.612 5.7098C54.4836 5.75262 54.4122 5.86682 54.3979 6.00956C54.3836 6.13803 54.4122 6.3236 54.4836 6.56627L56.068 12.3617L58.4233 7.62259C58.6232 7.23717 58.7231 6.92313 58.7516 6.69474C58.7802 6.45207 58.7088 6.26651 58.5518 6.13803C58.3948 6.00956 58.1378 5.93819 57.7952 5.89537L57.8238 5.66697C58.2378 5.73835 58.6803 5.79545 59.1371 5.83827Z" fill="#292F36"/>
<path d="M68.7291 8.85028C68.5864 8.85028 68.4722 8.90737 68.3865 9.02157C68.3009 9.13577 68.201 9.32134 68.101 9.59255L66.0598 15.0169C65.9599 15.2881 65.9028 15.5022 65.9028 15.645C65.9028 15.7877 65.9456 15.9019 66.0455 15.9875C66.1454 16.0732 66.331 16.1731 66.5879 16.2873L66.5023 16.5014C66.174 16.3587 65.7172 16.1731 65.1319 15.9447C64.5039 15.7021 64.0328 15.545 63.7188 15.4451L63.8044 15.231C64.0756 15.3166 64.2755 15.3595 64.4039 15.3595C64.5324 15.3595 64.6609 15.3024 64.7465 15.1882C64.8322 15.074 64.9321 14.8884 65.032 14.6172L67.0733 9.19286C67.1732 8.92165 67.2303 8.70753 67.2303 8.56479C67.2303 8.42204 67.1875 8.30784 67.0875 8.2222C66.9876 8.13655 66.802 8.03663 66.5451 7.92243L66.6308 7.70831C66.9305 7.83678 67.3873 8.02235 68.0154 8.26502C68.6006 8.49341 69.0717 8.65043 69.4143 8.75035L69.3286 8.96447C69.0717 8.87883 68.8719 8.836 68.7291 8.85028Z" fill="#292F36"/>
<path d="M81.4337 16.4014C81.291 16.3729 81.1483 16.4157 81.0198 16.5014C80.8913 16.587 80.7343 16.7583 80.563 17.001L76.4234 22.6109L76.2093 22.4538L76.766 13.4323L73.0974 18.3999C72.9261 18.6425 72.8119 18.8424 72.7548 18.9994C72.6977 19.1564 72.7263 19.2992 72.7977 19.4419C72.869 19.5847 73.0403 19.7417 73.283 19.9415L73.1402 20.1271C72.9261 19.9415 72.6121 19.6989 72.1981 19.3848C71.827 19.1136 71.5272 18.8995 71.2988 18.771L71.4416 18.5854C71.67 18.7425 71.8555 18.8281 71.9983 18.8424C72.141 18.8709 72.2838 18.8281 72.4122 18.7425C72.5407 18.6425 72.6977 18.4855 72.869 18.2429L76.2378 13.675C76.4091 13.4323 76.5233 13.2468 76.5661 13.1183C76.609 12.9898 76.5947 12.8614 76.5233 12.7472C76.4519 12.633 76.3092 12.4902 76.0808 12.3046L76.2235 12.1191C76.4091 12.2904 76.6946 12.5188 77.08 12.79C77.3655 13.0041 77.6082 13.1754 77.8366 13.3039L77.3798 20.8694L80.3489 16.844C80.5202 16.6013 80.6486 16.4014 80.6915 16.2444C80.7343 16.0874 80.72 15.9447 80.6486 15.8019C80.5773 15.6592 80.406 15.4879 80.1633 15.3023L80.3061 15.1167C80.5202 15.3023 80.8342 15.545 81.2482 15.859C81.6193 16.1302 81.9191 16.3443 82.1475 16.4728L82.0047 16.6584C81.7621 16.5156 81.5765 16.4157 81.4337 16.4014Z" fill="#292F36"/>
<path d="M86.216 22.8392C86.5871 22.568 86.9725 22.2682 87.3865 21.8971C87.7434 22.4395 88.3715 23.3388 89.2708 24.6093C90.17 25.8654 90.8124 26.7504 91.1978 27.2643C90.7125 27.5498 90.2985 27.8068 89.9274 28.0637C89.6133 28.2921 89.3564 28.4919 89.1708 28.6489L89.0138 28.4348C89.4706 28.0351 89.7846 27.7068 89.9702 27.4642C90.1558 27.2215 90.2271 26.9646 90.2129 26.6933C90.1986 26.4221 90.0273 26.0938 89.7561 25.6941L89.3849 25.1802L83.9749 29.0344C83.718 29.2199 83.5324 29.3912 83.4467 29.5197C83.3611 29.6482 83.3325 29.8052 83.3896 29.9765C83.4325 30.1335 83.5609 30.3619 83.7465 30.6474L83.5609 30.7901C83.3468 30.4475 83.0185 29.9622 82.5903 29.377C82.1335 28.7346 81.7909 28.2778 81.5625 27.9923L81.7481 27.8496C81.9622 28.1208 82.1335 28.3064 82.2762 28.4063C82.419 28.5062 82.5617 28.5348 82.7187 28.4919C82.8758 28.4491 83.0899 28.3349 83.3468 28.1493L88.7569 24.2952L88.3857 23.7813C88.1002 23.3816 87.8433 23.139 87.6006 23.0248C87.358 22.9106 87.0867 22.8963 86.8013 22.9962C86.5158 23.0962 86.1018 23.2817 85.5736 23.5815L85.4166 23.3674C85.6307 23.2532 85.8877 23.0819 86.216 22.8392Z" fill="#292F36"/>
<path d="M88.9558 42.6524L88.7275 42.7237C88.6418 42.4097 88.5276 42.01 88.3563 41.5247C88.1422 40.8966 87.9709 40.4255 87.8424 40.1115L88.0708 40.0401C88.1707 40.3113 88.2849 40.5112 88.3706 40.6111C88.4705 40.711 88.599 40.7396 88.7417 40.6825C88.8702 40.6396 89.0272 40.5397 89.2128 40.3827L90.7973 39.0837L89.898 36.4144L88.5704 36.3573C88.1422 36.3287 87.8139 36.3573 87.5855 36.4429C87.3571 36.5286 87.2143 36.657 87.1573 36.8426C87.1144 37.0282 87.143 37.2994 87.2429 37.6277L87.0145 37.6991C86.9003 37.2709 86.7576 36.8426 86.6148 36.4144C86.5006 36.0861 86.4007 35.8149 86.3008 35.6007L86.5292 35.5294C86.729 35.8719 87.1573 36.0575 87.7853 36.0718L95.3794 36.4144L95.4365 36.5857L89.3841 41.6246C89.0129 41.9814 88.8702 42.3098 88.9558 42.6524ZM93.9091 36.5857L90.1692 36.4287L91.0114 38.941L93.9091 36.5857Z" fill="#292F36"/>
<path d="M89.9974 53.5724C90.1401 53.5153 90.2115 53.4439 90.2115 53.344C90.2115 53.2869 90.1972 53.2441 90.1687 53.2013C90.1401 53.1584 90.083 53.0728 89.9974 52.9586C89.7832 52.6874 89.6262 52.4019 89.512 52.1164C89.3978 51.8309 89.3407 51.5026 89.3407 51.1457C89.3265 50.3464 89.4835 49.6612 89.7975 49.0759C90.1258 48.4907 90.5826 48.0481 91.2107 47.7341C91.8245 47.4201 92.5668 47.263 93.4375 47.2488C94.3368 47.2345 95.1219 47.3772 95.7928 47.6913C96.4637 48.0053 96.9919 48.4336 97.363 49.0045C97.7342 49.5755 97.934 50.2179 97.934 50.9316C97.934 51.2456 97.9055 51.5311 97.8484 51.7738C97.7913 52.0165 97.7056 52.2306 97.6057 52.4162C97.5058 52.6017 97.3773 52.8158 97.206 53.0442C97.1346 53.1442 97.0918 53.2298 97.0918 53.2869C97.0918 53.4297 97.3345 53.5296 97.8055 53.5724V53.8436C97.3059 53.8151 96.4066 53.8151 95.1219 53.8436V53.5724C95.5359 53.501 95.8785 53.4154 96.1497 53.3297C96.4209 53.2441 96.6493 53.1156 96.8491 52.9586C97.1204 52.7302 97.3488 52.4304 97.5058 52.0593C97.6628 51.6882 97.7342 51.317 97.7342 50.9173C97.7199 50.4034 97.5486 49.9609 97.206 49.5755C96.8634 49.1901 96.3781 48.9046 95.7643 48.6905C95.1362 48.4907 94.4225 48.3907 93.5945 48.405C92.6524 48.4193 91.8959 48.5335 91.2963 48.7476C90.6968 48.9617 90.2686 49.2758 89.9831 49.6897C89.6976 50.1037 89.5691 50.6318 89.5834 51.2742C89.5977 51.7453 89.7261 52.1449 89.9688 52.4875C90.0687 52.6303 90.1544 52.7159 90.2543 52.7587C90.34 52.8016 90.4684 52.8158 90.6254 52.8158L91.7531 52.8016C92.0814 52.8016 92.3098 52.7587 92.4669 52.7016C92.6096 52.6445 92.7238 52.5304 92.7666 52.3591C92.8237 52.202 92.8523 51.9451 92.8523 51.6025H93.0807C93.0664 51.9879 93.0521 52.5304 93.0664 53.2584C93.0807 53.8008 93.0949 54.2147 93.1235 54.4717H92.8951C92.8808 54.2861 92.838 54.1577 92.7952 54.0863C92.7523 54.0149 92.6524 53.9578 92.524 53.9293C92.3955 53.9007 92.1814 53.8864 91.8816 53.9007L89.5691 53.9435V53.7151C89.6976 53.658 89.8546 53.6295 89.9974 53.5724Z" fill="#292F36"/>
<path d="M88.2998 65.72C87.8858 65.5915 87.4005 65.463 86.8438 65.3488C87.0293 64.8492 87.3005 64.007 87.6859 62.8079C88.1427 61.3805 88.471 60.2956 88.6709 59.5676L88.8993 59.639C88.8279 59.9102 88.7994 60.1101 88.7994 60.2528C88.8136 60.3955 88.8707 60.4955 88.9849 60.5811C89.0991 60.6668 89.299 60.7524 89.5702 60.8381L95.0944 62.5796C95.3799 62.6652 95.5798 62.708 95.7225 62.708C95.8653 62.708 95.9795 62.6509 96.0651 62.5367C96.1507 62.4225 96.2364 62.237 96.3363 61.98L96.5647 62.0514C96.3078 62.7794 95.9652 63.85 95.5084 65.2774C95.1658 66.3623 94.9231 67.1474 94.8089 67.6185C94.3379 67.4186 93.9096 67.2473 93.51 67.1331C93.2245 67.0475 92.9818 66.9761 92.8105 66.9476L92.8961 66.6906C93.3958 66.7905 93.7812 66.8334 94.0381 66.8334C94.2951 66.8334 94.5092 66.7477 94.6805 66.5764C94.8518 66.4194 94.9945 66.1339 95.123 65.7485L95.4085 64.8207C95.4941 64.5494 95.5369 64.3496 95.5227 64.2211C95.5084 64.0927 95.4656 63.9785 95.3514 63.8928C95.2372 63.8072 95.0516 63.7215 94.7661 63.6359L92.1396 62.8079L91.9112 63.5502C91.797 63.9214 91.8256 64.2069 92.0111 64.4067C92.1967 64.6065 92.3965 64.7493 92.6249 64.8492C92.8533 64.9491 92.9961 65.0205 93.0532 65.049L92.9675 65.306C92.6107 65.1632 92.2681 65.0348 91.9255 64.9349L91.3973 64.7778C91.0262 64.6636 90.4838 64.5066 89.7986 64.3496L89.8842 64.0927C89.9413 64.1069 90.1269 64.1355 90.4409 64.2069C90.755 64.2639 91.0262 64.2354 91.2403 64.1212C91.4544 64.007 91.5972 63.7929 91.6971 63.4931L91.9255 62.7508L89.2419 61.9087C88.9564 61.823 88.7565 61.7802 88.6138 61.7802C88.471 61.7802 88.3568 61.8373 88.2855 61.9515C88.1998 62.0657 88.1142 62.2512 88.0285 62.5225L87.7716 63.3361C87.6288 63.8072 87.5718 64.1783 87.6288 64.4495C87.6717 64.735 87.8144 64.9634 88.0571 65.1632C88.2998 65.3488 88.6709 65.5629 89.1705 65.7913L89.0849 66.0483C88.9136 65.9198 88.6423 65.8342 88.2998 65.72Z" fill="#292F36"/>
<path d="M84.2317 83.2348C84.2888 83.1064 84.2745 82.9779 84.2174 82.8494C84.1603 82.7209 84.0175 82.5639 83.8034 82.3498L79.6067 78.3387C79.3926 78.1388 79.2213 78.0104 79.0928 77.9533C78.9644 77.8962 78.8359 77.8962 78.7074 77.9533C78.5789 78.0104 78.4219 78.1388 78.2221 78.3387L78.0508 78.1816C78.322 77.939 78.6646 77.5821 79.1071 77.1396C79.5639 76.6543 79.9065 76.2831 80.1206 76.0405L80.2919 76.1975C80.1063 76.4116 79.9921 76.5829 79.935 76.6971C79.8779 76.8256 79.8922 76.954 79.9493 77.0825C80.0064 77.211 80.1491 77.368 80.3633 77.5821L84.56 81.5933C84.7741 81.7931 84.9454 81.9216 85.0739 81.9787C85.2023 82.0358 85.3308 82.0358 85.4593 81.9787C85.5877 81.9216 85.7448 81.7931 85.9446 81.5933L86.1159 81.7503C85.8732 81.9644 85.5164 82.3213 85.0596 82.8066C84.6171 83.2634 84.2888 83.6345 84.0604 83.9057L83.8891 83.7487C84.0604 83.5346 84.1746 83.3633 84.2317 83.2348Z" fill="#292F36"/>
<path d="M72.3401 91.9422C72.4258 91.8138 72.4401 91.6853 72.4115 91.5283C72.383 91.3713 72.283 91.1714 72.126 90.9002L68.5859 84.8906L68.8143 84.7479L76.8937 88.7876L73.7676 83.4774C73.6106 83.2205 73.4821 83.0349 73.3536 82.935C73.2252 82.8351 73.0824 82.7923 72.9254 82.8065C72.7684 82.8208 72.5543 82.9065 72.283 83.0492L72.1546 82.8494C72.4115 82.7352 72.7541 82.5353 73.1966 82.2784C73.5963 82.0357 73.8961 81.8501 74.1102 81.6931L74.2244 81.893C73.996 82.0357 73.839 82.1784 73.7676 82.3069C73.6819 82.4354 73.6677 82.5639 73.6962 82.7209C73.7248 82.8779 73.8247 83.0777 73.9817 83.349L76.8652 88.2451C77.0079 88.5021 77.1364 88.6734 77.2506 88.759C77.3648 88.8447 77.479 88.8875 77.6217 88.8589C77.7502 88.8304 77.95 88.759 78.1927 88.6305L78.3069 88.8304C78.0785 88.9446 77.7645 89.1159 77.3505 89.3585C77.0507 89.5298 76.7938 89.7011 76.5797 89.8439L69.7993 86.4608L72.3401 90.7717C72.4972 91.0287 72.6256 91.2142 72.7541 91.3142C72.8683 91.4141 73.011 91.4569 73.1823 91.4426C73.3536 91.4283 73.5678 91.3427 73.839 91.2L73.9532 91.3998C73.6962 91.514 73.3536 91.7138 72.9111 91.9708C72.5114 92.2134 72.2117 92.399 71.9976 92.556L71.8834 92.3562C72.0975 92.1992 72.2545 92.0564 72.3401 91.9422Z" fill="#292F36"/>
<path d="M64.4897 93.8123C64.5896 94.2549 64.718 94.7402 64.8893 95.2541C64.247 95.3683 63.1764 95.5967 61.6633 95.9107C60.1502 96.239 59.0939 96.4817 58.4658 96.6387C58.3944 96.082 58.3231 95.5967 58.2231 95.1542C58.1375 94.7687 58.0661 94.4547 57.9805 94.2263L58.2374 94.1692C58.423 94.7545 58.5943 95.1684 58.7513 95.4396C58.9083 95.7109 59.1082 95.8822 59.3651 95.9678C59.622 96.0534 59.9932 96.0392 60.4642 95.9392L61.078 95.8108L59.6791 89.3159C59.6078 89.0018 59.5364 88.7734 59.4365 88.645C59.3366 88.5165 59.2224 88.4308 59.0511 88.4166C58.8798 88.388 58.6228 88.4166 58.2802 88.4737L58.2374 88.2453C58.6371 88.1882 59.2081 88.074 59.9218 87.917C60.6784 87.7457 61.2493 87.6172 61.6062 87.5173L61.649 87.7457C61.3064 87.8313 61.078 87.917 60.9353 88.0026C60.7926 88.0883 60.7069 88.2167 60.6784 88.3737C60.6498 88.5308 60.6641 88.7734 60.7355 89.0875L62.1344 95.5824L62.7482 95.4539C63.2192 95.354 63.5618 95.2112 63.7617 95.0257C63.9615 94.8401 64.0757 94.5974 64.1042 94.2977C64.1328 93.9979 64.1185 93.5411 64.0471 92.9416L64.3041 92.8845C64.3469 93.1129 64.404 93.4269 64.4897 93.8123Z" fill="#292F36"/>
<path d="M45.5468 89.8011C45.5896 89.3586 45.6039 88.859 45.6039 88.3022C46.132 88.3736 47.0171 88.4593 48.2732 88.5735C49.7578 88.7019 50.8854 88.8019 51.6563 88.8447L51.642 89.0731C51.3565 89.0588 51.1567 89.0731 51.0282 89.1159C50.8997 89.1587 50.7998 89.2301 50.7427 89.3586C50.6856 89.487 50.6428 89.7012 50.6142 89.9866L50.1003 95.7678C50.0718 96.0533 50.0861 96.2674 50.1146 96.4102C50.1432 96.5529 50.2288 96.6528 50.3573 96.7099C50.4858 96.767 50.6856 96.8241 50.9568 96.8527L50.9425 97.0811C50.186 96.9954 49.0583 96.8812 47.5738 96.7528C46.4318 96.6528 45.6181 96.5958 45.1328 96.5672C45.2327 96.0676 45.3041 95.6108 45.3327 95.1968C45.3612 94.8971 45.3755 94.6544 45.3612 94.4688L45.6324 94.4974C45.6467 95.0113 45.6752 95.3824 45.7466 95.6394C45.8037 95.8963 45.9322 96.0819 46.132 96.2103C46.3176 96.3388 46.6316 96.4245 47.0313 96.453L48.002 96.5386C48.2875 96.5672 48.4873 96.5529 48.6158 96.5244C48.7443 96.4958 48.8442 96.4102 48.9013 96.2817C48.9584 96.1532 49.0012 95.9391 49.0298 95.6536L49.2724 92.9129L48.5016 92.8415C48.1162 92.813 47.845 92.8986 47.688 93.127C47.5452 93.3554 47.431 93.5838 47.3882 93.8265C47.3311 94.0692 47.3025 94.2262 47.2883 94.2975L47.0171 94.269C47.0741 93.8836 47.117 93.5267 47.1598 93.1699L47.2026 92.6132C47.2312 92.2135 47.2597 91.671 47.2883 90.9573L47.5595 90.9859C47.5595 91.043 47.5738 91.2285 47.5738 91.5568C47.588 91.8852 47.6594 92.1421 47.8307 92.3134C47.9877 92.499 48.2304 92.5989 48.5444 92.6274L49.3153 92.6988L49.5579 89.901C49.5865 89.6155 49.5722 89.4014 49.5436 89.2586C49.5151 89.1302 49.4295 89.0302 49.301 88.9732C49.1725 88.9161 48.9727 88.8732 48.7014 88.8447L47.845 88.7733C47.3596 88.7305 46.9885 88.759 46.7173 88.8732C46.4603 88.9731 46.2605 89.173 46.1178 89.4442C45.975 89.7154 45.8608 90.1294 45.7466 90.6718L45.4754 90.6433C45.4754 90.4292 45.504 90.1437 45.5468 89.8011Z" fill="#292F36"/>
<path d="M34.3137 84.5052C34.5278 84.4624 34.7705 84.5052 35.0274 84.6194C35.3272 84.7479 35.5271 84.9335 35.6413 85.1761C35.7555 85.4331 35.7697 85.7899 35.6984 86.261L35.4842 87.4315C35.4129 87.8455 35.37 88.1595 35.3558 88.4022C35.3415 88.6306 35.3986 88.8447 35.4985 89.0303C35.5984 89.2158 35.784 89.3586 36.0552 89.4728L37.083 89.901L38.125 87.4172C38.2392 87.146 38.2963 86.9462 38.3106 86.8034C38.3249 86.6607 38.2678 86.5465 38.1678 86.4466C38.0679 86.3467 37.8966 86.2467 37.6397 86.1325L37.7253 85.9184C38.0536 86.0754 38.4962 86.2753 39.0814 86.518C39.6952 86.7749 40.1663 86.9605 40.4803 87.0604L40.3947 87.2745C40.1235 87.1746 39.9236 87.1318 39.7951 87.1175C39.6524 87.1175 39.5382 87.1603 39.4526 87.2745C39.3526 87.3744 39.2527 87.56 39.1385 87.8312L36.8974 93.1842C36.7832 93.4554 36.7261 93.6552 36.7118 93.798C36.6976 93.9407 36.7547 94.0549 36.8546 94.1548C36.9545 94.2547 37.1258 94.3547 37.3827 94.4831L37.2971 94.6973C36.9973 94.5545 36.5691 94.3547 35.9981 94.112C35.7126 93.9978 35.4129 93.8693 35.0703 93.7266C34.7277 93.5839 34.4993 93.4982 34.3708 93.4411C33.8141 93.1984 33.3716 92.9272 33.0433 92.5989C32.715 92.2706 32.5294 91.928 32.4438 91.5569C32.3581 91.1857 32.4009 90.8289 32.558 90.472C32.6722 90.1865 32.8577 89.9296 33.1147 89.7012C33.3716 89.4728 33.6999 89.3015 34.0996 89.2158C34.4993 89.1302 34.9846 89.1445 35.5128 89.2729L35.3843 89.2016C35.0845 89.016 34.8562 88.8304 34.7134 88.6306C34.5707 88.445 34.4707 88.2309 34.4422 88.0025C34.3994 87.7741 34.4136 87.4886 34.4707 87.146L34.6706 85.9327C34.7134 85.69 34.742 85.5045 34.742 85.3617C34.742 85.219 34.7277 85.1048 34.6849 85.0191C34.642 84.9335 34.5707 84.8621 34.4707 84.8336C34.3565 84.7765 34.2424 84.7765 34.1424 84.805C34.0425 84.8336 33.8998 84.9049 33.7142 85.0048L33.6 84.8193C33.8569 84.6623 34.0996 84.5481 34.3137 84.5052ZM35.0274 89.587C34.6849 89.6298 34.4136 89.7583 34.1995 89.9724C33.9854 90.1865 33.7998 90.472 33.6428 90.8431C33.4002 91.4284 33.3431 91.9423 33.5001 92.3562C33.6571 92.7702 34.0425 93.1128 34.6849 93.384C34.9133 93.4839 35.0845 93.5268 35.2273 93.5125C35.3558 93.5125 35.47 93.4554 35.5699 93.3412C35.6698 93.227 35.7697 93.0414 35.8696 92.7845L36.9831 90.1294L36.2551 89.8296C35.784 89.6298 35.37 89.5441 35.0274 89.587Z" fill="#292F36"/>
<path d="M23.1793 86.4466C23.3078 86.4894 23.4363 86.4609 23.5505 86.3895C23.6647 86.3181 23.8217 86.1611 24.0072 85.9327L27.5902 81.3649C27.7757 81.1365 27.8899 80.9509 27.9327 80.8225C27.9756 80.694 27.9613 80.5655 27.8899 80.4513C27.8185 80.3371 27.6758 80.1801 27.4617 79.9945L27.6044 79.809C27.8756 80.0516 28.2468 80.3657 28.7464 80.7511C29.2745 81.165 29.6742 81.4648 29.9454 81.6504L29.8027 81.8359C29.5743 81.6647 29.3887 81.5647 29.2603 81.5362C29.1318 81.4934 29.0033 81.5076 28.8891 81.5933C28.7749 81.6646 28.6179 81.8217 28.4323 82.0501L24.8494 86.6179C24.6639 86.8463 24.5497 87.0319 24.5069 87.1603C24.464 87.2888 24.4783 87.4173 24.5497 87.5315C24.621 87.6457 24.7638 87.8027 24.9779 87.9883L24.8352 88.1738C24.5925 87.9597 24.2071 87.6457 23.6789 87.2174C23.1793 86.832 22.7796 86.5323 22.4941 86.3324L22.6369 86.1469C22.8796 86.3039 23.0508 86.4038 23.1793 86.4466Z" fill="#292F36"/>
<path d="M13.9576 76.2832C13.9005 75.6409 14.0432 74.9985 14.3716 74.3847C14.7141 73.7566 15.228 73.1999 15.9418 72.6717C16.6412 72.1721 17.3407 71.8438 18.0687 71.7154C18.7967 71.5869 19.4676 71.6297 20.0956 71.8724C20.7237 72.115 21.2519 72.529 21.6658 73.1143C22.1084 73.7138 22.351 74.3419 22.4081 74.9842C22.4652 75.6266 22.3225 76.2689 21.9942 76.8827C21.6516 77.5108 21.1377 78.0675 20.424 78.5957C19.7245 79.0953 19.0251 79.4236 18.297 79.5521C17.5833 79.6805 16.8981 79.6377 16.2701 79.3951C15.642 79.1524 15.1138 78.7384 14.6999 78.1674C14.2574 77.5536 14.0147 76.9256 13.9576 76.2832ZM16.0988 78.8241C16.5984 78.924 17.1694 78.8812 17.7974 78.6813C18.4255 78.4815 19.0536 78.1532 19.7102 77.6678C20.3669 77.1968 20.8807 76.6829 21.2376 76.1405C21.6087 75.598 21.8086 75.0556 21.8371 74.5417C21.88 74.0278 21.7515 73.571 21.4803 73.1856C21.1805 72.7859 20.7951 72.529 20.2812 72.4291C19.7816 72.3292 19.2106 72.372 18.5825 72.5718C17.9545 72.7717 17.3264 73.1 16.6698 73.571C16.0131 74.0421 15.4992 74.556 15.1424 75.1127C14.7712 75.6551 14.5714 76.1833 14.5286 76.7114C14.4857 77.2253 14.6142 77.6821 14.8854 78.0675C15.1852 78.4672 15.5849 78.7242 16.0988 78.8241Z" fill="#292F36"/>
<path d="M15.0567 59.0966C15.228 59.2251 15.3565 59.4392 15.4421 59.7247C15.542 60.0245 15.5278 60.31 15.4136 60.5526C15.2994 60.8096 15.0282 61.0522 14.6142 61.2949L13.5721 61.8801C13.2153 62.0943 12.9441 62.2656 12.7585 62.4083C12.5729 62.5511 12.4445 62.7224 12.3731 62.9222C12.3017 63.122 12.3017 63.3504 12.3874 63.6359L12.7157 64.7065L15.2851 63.9071C15.5706 63.8215 15.7562 63.7358 15.8703 63.6502C15.9845 63.5645 16.0416 63.4504 16.0559 63.3219C16.0702 63.1934 16.0274 62.9793 15.956 62.7081L16.1844 62.6367C16.27 62.9793 16.3985 63.4646 16.5984 64.0642C16.7982 64.7065 16.9552 65.1776 17.0694 65.4773L16.841 65.5487C16.7411 65.2775 16.6554 65.0919 16.5698 64.992C16.4842 64.8921 16.37 64.8207 16.2272 64.8207C16.0845 64.8207 15.8703 64.8493 15.5991 64.9492L10.0606 66.6621C9.77512 66.7478 9.58955 66.8334 9.47536 66.9191C9.36116 67.0047 9.30406 67.1189 9.28979 67.2474C9.27551 67.3901 9.31834 67.59 9.38971 67.8612L9.16132 67.9326C9.08995 67.6185 8.96147 67.1617 8.77591 66.5622C8.69026 66.2767 8.57606 65.9484 8.46187 65.6058C8.34767 65.2632 8.26202 65.0205 8.2192 64.8921C8.03363 64.3068 7.97653 63.7929 8.01936 63.3362C8.06218 62.8794 8.20492 62.5082 8.43332 62.2085C8.66171 61.9087 8.96147 61.7089 9.33261 61.5947C9.6181 61.509 9.93214 61.4805 10.2747 61.5233C10.6173 61.5661 10.9456 61.7089 11.2882 61.9658C11.6308 62.2227 11.9163 62.5939 12.159 63.0935L12.1447 62.9507C12.1019 62.5939 12.0876 62.3084 12.1447 62.0657C12.2018 61.8231 12.3017 61.6232 12.4445 61.4519C12.6015 61.2806 12.8299 61.0951 13.1296 60.9238L14.186 60.2957C14.4001 60.1815 14.5714 60.0673 14.6713 59.9816C14.7712 59.896 14.8569 59.8103 14.8997 59.7247C14.9425 59.639 14.9425 59.5391 14.914 59.4392C14.8711 59.3107 14.814 59.2251 14.7284 59.168C14.6427 59.1109 14.5 59.0395 14.3002 58.9681L14.3715 58.754C14.657 58.854 14.8997 58.9681 15.0567 59.0966ZM11.6451 62.9222C11.4024 62.6938 11.1169 62.5653 10.8172 62.5368C10.5174 62.5082 10.1748 62.5511 9.7894 62.6795C9.17559 62.8651 8.76163 63.1649 8.53324 63.5503C8.30485 63.9357 8.30485 64.4638 8.50469 65.1062C8.57606 65.3346 8.66171 65.5059 8.74736 65.6058C8.833 65.7057 8.96147 65.7628 9.10422 65.7628C9.24697 65.7628 9.46108 65.72 9.71803 65.6486L12.4587 64.7922L12.2303 64.0356C12.0876 63.5217 11.8878 63.1506 11.6451 62.9222Z" fill="#292F36"/>
<path d="M13.9578 45.5501C14.5002 45.3074 14.8285 44.8506 14.9713 44.1655C15.0141 43.9085 15.0141 43.6516 14.9427 43.4089C14.8713 43.1662 14.7429 42.9521 14.543 42.7666C14.3432 42.581 14.072 42.4525 13.7151 42.3954C13.4153 42.3383 13.1441 42.3669 12.8872 42.4668C12.6302 42.5667 12.3733 42.7237 12.1306 42.9379C11.888 43.152 11.6025 43.4375 11.2884 43.7943C10.9316 44.194 10.6175 44.5223 10.3463 44.7507C10.0751 44.9934 9.77533 45.1647 9.44702 45.2932C9.11871 45.4216 8.74757 45.4359 8.33361 45.3645C7.90537 45.2789 7.54851 45.1219 7.29157 44.8649C7.03462 44.608 6.84905 44.3082 6.76341 43.9513C6.67776 43.5945 6.67776 43.2233 6.74913 42.8237C6.79196 42.581 6.84905 42.3954 6.92043 42.2241C6.9918 42.0528 7.06317 41.9244 7.14882 41.8244C7.23447 41.7245 7.32011 41.6103 7.43431 41.4961C7.57706 41.3391 7.64843 41.2249 7.67698 41.1393C7.69125 41.0679 7.6627 41.0108 7.59133 40.9537C7.51996 40.8966 7.39149 40.8538 7.22019 40.7967L7.26302 40.5397C7.70553 40.6539 8.47635 40.8252 9.60404 41.0393L9.56122 41.2963C9.16153 41.2535 8.79039 41.2677 8.41925 41.3534C8.06239 41.4248 7.74835 41.5818 7.49141 41.8244C7.23447 42.0528 7.06317 42.3811 6.9918 42.7808C6.9347 43.0521 6.94898 43.2947 7.02035 43.5374C7.09172 43.7801 7.22019 43.9656 7.39149 44.1226C7.57706 44.2797 7.79117 44.3796 8.04812 44.4367C8.46208 44.5081 8.81894 44.451 9.11871 44.2511C9.41847 44.0513 9.70396 43.7943 9.97518 43.4946C10.2464 43.1948 10.4177 42.995 10.5176 42.895C10.9173 42.4668 11.2456 42.1385 11.5168 41.8958C11.788 41.6531 12.0878 41.4819 12.4161 41.3677C12.7444 41.2535 13.1013 41.2392 13.4867 41.3106C13.9578 41.3962 14.3432 41.5818 14.6287 41.853C14.9142 42.1385 15.0997 42.4668 15.1997 42.8665C15.2996 43.2662 15.2996 43.6944 15.2139 44.1512C15.1426 44.5223 15.0569 44.8078 14.9284 45.0362C14.8142 45.2646 14.6572 45.4644 14.4859 45.65C14.3432 45.807 14.2718 45.9212 14.2433 46.0069C14.229 46.0783 14.2575 46.1354 14.3289 46.1925C14.4003 46.2495 14.5288 46.3066 14.7 46.3495L14.6572 46.6064C14.2433 46.4922 13.3297 46.3066 11.9165 46.0497L11.9593 45.7928C12.7587 45.8641 13.4153 45.7928 13.9578 45.5501Z" fill="#292F36"/>
<path d="M11.1321 33.5165C10.7324 33.3024 10.2756 33.1026 9.76172 32.9027C10.0758 32.346 10.6039 31.3754 11.3176 29.9907C12.0314 28.6204 12.531 27.6497 12.8022 27.0645C13.2733 27.3642 13.7015 27.6212 14.0869 27.821C14.4295 28.0066 14.7293 28.135 14.9577 28.235L14.8292 28.4776C14.2582 28.2492 13.83 28.1065 13.5302 28.0637C13.2304 28.0066 12.9592 28.0637 12.7308 28.2064C12.5024 28.3492 12.274 28.6347 12.0599 29.0629L11.7744 29.6339L17.6698 32.7029C17.9553 32.8599 18.1837 32.9313 18.3407 32.9456C18.4977 32.9598 18.6405 32.917 18.769 32.8028C18.8974 32.6886 19.0402 32.4745 19.2115 32.1747L19.4256 32.2889C19.2115 32.6458 18.9402 33.1454 18.5977 33.802C18.2408 34.4872 17.9839 35.0154 17.8268 35.3437L17.6127 35.2295C17.7555 34.9154 17.8554 34.6728 17.8697 34.5158C17.8982 34.3445 17.8554 34.2017 17.7412 34.0733C17.627 33.9448 17.4414 33.8163 17.1559 33.6593L11.2605 30.576L10.9608 31.1327C10.7324 31.5609 10.6325 31.9035 10.6467 32.1747C10.661 32.446 10.7752 32.6886 10.9893 32.9027C11.2034 33.1169 11.5603 33.4023 12.0742 33.7307L11.9457 33.9733C11.7602 33.8591 11.4747 33.7021 11.1321 33.5165Z" fill="#292F36"/>
<path d="M21.2095 17.1153C21.4522 16.8726 21.652 16.6442 21.7947 16.4729L21.966 16.6442C21.8804 16.7727 21.8376 16.9582 21.8518 17.1724C21.8661 17.3865 21.9232 17.6862 22.0374 18.0431L23.3364 21.9115L24.8495 23.4103C25.0636 23.6102 25.2206 23.7529 25.3491 23.81C25.4776 23.8671 25.606 23.8671 25.7345 23.81C25.863 23.7529 26.02 23.6244 26.2341 23.4389L26.4054 23.6102C26.1342 23.8528 25.7773 24.1954 25.3348 24.6379C24.8638 25.109 24.5212 25.4801 24.3071 25.7228L24.1358 25.5515C24.3213 25.3374 24.4498 25.1804 24.5069 25.0519C24.564 24.9234 24.564 24.795 24.4926 24.6665C24.4355 24.538 24.2928 24.3667 24.0929 24.1669L22.8368 22.925L18.0691 21.5261C17.7836 21.4404 17.5695 21.4119 17.4267 21.4262C17.284 21.4404 17.1841 21.4833 17.1127 21.5546L16.9414 21.3833C17.1698 21.1835 17.4267 20.9551 17.6837 20.6839C18.2118 20.1415 18.5973 19.756 18.8114 19.4991L18.9827 19.6704C18.5973 20.0558 18.5116 20.3556 18.7257 20.5697C18.8114 20.6553 18.9256 20.7124 19.0969 20.7695L23.108 22.0114L22.0517 18.8567C21.8947 18.4 21.7377 18.0859 21.5664 17.9289C21.4093 17.7719 21.238 17.7291 21.0525 17.7862C20.8669 17.8433 20.6528 17.986 20.3958 18.2287L20.2245 18.0574C20.5671 17.7433 20.8812 17.4293 21.2095 17.1153Z" fill="#292F36"/>
<path d="M29.846 11.3626C29.7603 11.4625 29.7175 11.591 29.746 11.7337C29.7746 11.8765 29.846 12.0763 29.9887 12.3333L32.7437 17.4436C32.8864 17.7005 33.0006 17.8718 33.1148 17.9717C33.2148 18.0716 33.3432 18.1002 33.4717 18.0859C33.6002 18.0716 33.8 17.986 34.0427 17.8575L34.7992 17.4436C35.2275 17.2152 35.5272 16.9725 35.6843 16.7298C35.8413 16.4872 35.8984 16.2159 35.8555 15.8876C35.8127 15.5593 35.6843 15.1454 35.4559 14.6029L35.6985 14.4745C35.7984 14.7028 35.9412 14.9883 36.1268 15.3309C36.3409 15.7163 36.5978 16.1446 36.9119 16.6156C36.4408 16.844 35.6414 17.258 34.5423 17.8575C33.229 18.5712 32.2298 19.1137 31.5732 19.4991L31.459 19.2992C31.7017 19.1565 31.873 19.028 31.9586 18.9281C32.0442 18.8282 32.0871 18.6997 32.0585 18.557C32.03 18.4142 31.9586 18.2144 31.8159 17.9574L29.0323 12.8472C28.8896 12.5902 28.7754 12.4189 28.6612 12.319C28.5613 12.2191 28.4328 12.1905 28.3043 12.2048C28.1616 12.2191 27.976 12.2905 27.7191 12.4189L27.6191 12.2048C27.9189 12.0763 28.3614 11.8479 28.9467 11.5196C29.5034 11.2199 29.9316 10.9772 30.2314 10.7916L30.3456 10.9915C30.1029 11.1342 29.9459 11.2627 29.846 11.3626Z" fill="#292F36"/>
<path d="M47.2309 12.276C47.3165 12.7043 47.445 13.1896 47.602 13.732C47.0739 13.8177 46.2031 13.9747 44.9755 14.2174C43.5052 14.5029 42.4061 14.7313 41.6495 14.9026L41.6067 14.6742C41.8779 14.6028 42.0778 14.5457 42.192 14.46C42.3062 14.3887 42.3775 14.2745 42.3918 14.146C42.4061 14.0033 42.3918 13.7891 42.3347 13.5037L41.2213 7.80811C41.1642 7.52262 41.1071 7.32278 41.0215 7.19431C40.9358 7.06584 40.8502 6.99446 40.7074 6.98019C40.5789 6.95164 40.3648 6.96591 40.0936 7.00874L40.0508 6.78034C40.8073 6.65187 41.9207 6.45203 43.3767 6.16654C44.5044 5.93815 45.3038 5.78113 45.7606 5.66693C45.8034 6.18081 45.8748 6.6376 45.9462 7.03729C46.0033 7.33705 46.0604 7.56544 46.1175 7.73674L45.8605 7.79384C45.7035 7.3085 45.5608 6.95164 45.4323 6.72325C45.3038 6.49485 45.1182 6.35211 44.9041 6.28074C44.6757 6.20936 44.376 6.20936 43.962 6.29501L43.0056 6.48058C42.7344 6.53768 42.5346 6.59478 42.4204 6.66615C42.3062 6.73752 42.2348 6.83744 42.2062 6.98019C42.192 7.12293 42.2062 7.33705 42.2633 7.62254L42.7915 10.3347L43.548 10.1777C43.9335 10.1063 44.1618 9.93502 44.2475 9.67808C44.3331 9.42113 44.3617 9.17847 44.3474 8.9358C44.3331 8.69313 44.3189 8.53611 44.3189 8.46474L44.5758 8.40764C44.6186 8.79305 44.6757 9.14992 44.7471 9.49251L44.8613 10.0349C44.9327 10.4204 45.0611 10.9628 45.2467 11.648L44.9898 11.7051C44.9755 11.648 44.9184 11.4767 44.8185 11.1626C44.7186 10.8486 44.5758 10.6345 44.3617 10.506C44.1476 10.3775 43.9049 10.349 43.5909 10.4061L42.8343 10.5488L43.3767 13.3038C43.4338 13.5893 43.4909 13.7891 43.5623 13.9176C43.6337 14.0318 43.7336 14.1032 43.8764 14.1317C44.0048 14.146 44.2189 14.1317 44.4902 14.0746L45.3324 13.9033C45.8034 13.8034 46.1603 13.6749 46.3887 13.5037C46.6171 13.3324 46.7455 13.0897 46.8026 12.7899C46.8597 12.4902 46.8597 12.0619 46.8169 11.5052L47.0739 11.4481C47.1167 11.6622 47.1595 11.9335 47.2309 12.276Z" fill="#292F36"/>
<path d="M37.6113 66.7905C36.9547 65.9055 36.3837 64.9348 35.8841 63.8642C35.3845 62.7936 34.9848 61.7088 34.685 60.5954C34.0284 55.6992 34.0141 50.9458 34.6279 46.3351C35.2417 41.7244 36.2409 37.1851 37.6113 32.7029C37.8397 32.2033 38.3393 31.9606 39.1101 31.9606C39.881 31.9606 40.6375 32.1319 41.4083 32.4745C42.1792 32.8171 42.8072 33.2739 43.3068 33.8449C43.8065 34.4159 43.9207 35.0154 43.6494 35.6292C43.2212 36.5428 42.8072 37.7847 42.3933 39.3263C41.9793 40.8822 41.5654 42.5952 41.1942 44.4651C40.8088 46.3351 40.4805 48.305 40.195 50.3463C39.9095 52.3875 39.6954 54.3574 39.5669 56.2274C39.4384 58.0973 39.4099 59.796 39.4813 61.3091C39.5526 62.8222 39.781 64.0213 40.1664 64.892C41.965 62.4796 43.6066 59.9816 45.1054 57.3979C46.6043 54.8142 48.0032 52.2019 49.3164 49.5326C50.6297 46.8775 51.8858 44.1939 53.0706 41.4675C54.2554 38.7553 55.4259 36.0717 56.5679 33.4309C57.1389 32.0891 57.7099 30.6759 58.2666 29.1914C58.8233 27.6926 59.5513 26.4221 60.4791 25.3515C60.8645 25.0089 61.1643 24.8948 61.3641 25.0089C61.5782 25.1231 61.721 25.3373 61.7924 25.6656C61.8637 25.9939 61.9066 26.3365 61.9066 26.6933C61.9066 27.0502 61.9066 27.3357 61.9066 27.5213C61.6353 29.277 61.407 31.0185 61.2214 32.7457C61.0358 34.473 60.6219 36.1288 60.0223 37.7418C59.0231 40.2684 58.0096 42.7665 56.9533 45.2645C55.897 47.7483 54.7693 50.2035 53.5702 52.6159C52.3712 55.0283 51.0579 57.3693 49.6733 59.639C48.2744 61.9229 46.7613 64.0926 45.1054 66.1482C43.8065 67.7897 42.5075 68.6605 41.237 68.7604C39.9095 68.8746 38.7247 68.2037 37.6113 66.7905Z" fill="#292F36" stroke="white" stroke-miterlimit="10"/>
<path d="M61.249 60.3099C60.4782 59.2393 59.7217 58.1544 58.9794 57.041C58.2371 55.9276 57.866 54.7143 57.866 53.3725C57.866 51.8879 58.2942 50.4747 59.1507 49.1472C60.0071 47.834 60.9921 46.7634 62.1055 45.964C62.5623 45.6642 63.0333 45.4073 63.5044 45.2217C63.9755 45.0361 64.4893 45.0504 65.0318 45.2788C65.2602 45.393 65.5028 45.4787 65.7455 45.5358C65.9882 45.5929 66.2166 45.6642 66.4021 45.7356C66.5877 45.807 66.8018 45.9212 67.0302 46.0782C67.2586 46.2352 67.3728 46.4351 67.3728 46.7063C67.3728 47.7769 67.4013 48.6476 67.4584 49.3185C67.5155 49.9894 67.6012 50.5604 67.7154 51.0457C67.8296 51.5311 67.9438 51.945 68.058 52.3019C68.1722 52.673 68.2864 53.0584 68.4006 53.4724C68.4719 53.8578 68.4577 54.1861 68.3435 54.4431C68.2293 54.7143 67.9438 54.7428 67.487 54.5573C66.6448 54.2575 66.0167 53.6437 65.617 52.7158C65.2173 51.788 64.9176 50.9601 64.732 50.1893C64.6892 50.0322 64.6035 49.7753 64.4465 49.3899C64.2895 49.0045 64.2039 48.7333 64.161 48.5905C63.8613 48.5191 63.4901 48.6191 63.0762 48.9045C62.6622 49.19 62.2768 49.5897 61.9628 50.0751C61.6344 50.5747 61.4203 51.1456 61.3347 51.8023C61.2347 52.4589 61.3632 53.1013 61.7058 53.7579C61.8628 53.9863 62.0769 54.2718 62.3624 54.5858C62.6479 54.9141 62.9334 55.2424 63.2189 55.585C63.5044 55.9276 63.7899 56.2702 64.0754 56.5842C64.3609 56.8983 64.6035 57.1695 64.7891 57.3551C65.0175 57.5835 65.1745 57.7119 65.2459 57.7262C65.3173 57.7405 65.5171 57.6977 65.8169 57.5835C66.2023 57.3979 66.7875 57.141 67.5726 56.8412C68.3577 56.5414 69.1857 56.2274 70.0421 55.9276C70.8986 55.6279 71.7265 55.3709 72.5116 55.1568C73.2967 54.9427 73.8963 54.8427 74.3245 54.8427C74.5957 54.8427 74.7813 54.9427 74.8955 55.1282C75.0097 55.2424 74.9954 55.3995 74.8384 55.585C74.6814 55.7706 74.4815 55.9704 74.2389 56.156C73.9962 56.3416 73.725 56.5129 73.468 56.6699C73.1968 56.8269 73.0255 56.9126 72.9541 56.9554C72.2975 57.3408 71.4839 57.769 70.4847 58.2544C69.4854 58.7254 68.629 59.1965 67.901 59.6533C67.8296 59.7246 67.6868 59.8103 67.4727 59.8817C67.2586 59.953 67.1016 60.0387 66.9874 60.1101C67.4442 61.1378 67.7725 62.0371 67.9581 62.7794C68.1436 63.5217 68.215 64.2354 68.1579 64.9348C68.1008 65.62 67.9581 66.3195 67.7297 67.0332C67.5013 67.7469 67.1872 68.5606 66.8161 69.4741C66.2737 70.3592 65.7312 71.2014 65.1745 72.0007C64.6178 72.8001 64.004 73.5281 63.3046 74.1847C62.6194 74.8414 61.8628 75.3553 61.0635 75.7264C60.2641 76.1118 59.3791 76.2974 58.4227 76.2974C57.8802 76.2974 57.3664 76.226 56.8667 76.0975C56.3671 75.9691 55.9532 75.6836 55.6106 75.2696C54.7256 74.3132 54.2402 73.2712 54.126 72.1435C54.0118 71.0158 54.1118 69.9024 54.4115 68.789C54.6399 68.1038 54.9254 67.4757 55.268 66.8905C56.1102 65.4345 57.038 64.2068 58.0515 63.1934C59.0793 62.1941 60.1356 61.2235 61.249 60.3099ZM63.2046 62.8936C62.7764 63.3218 62.2054 63.9214 61.4774 64.7065C60.7494 65.4916 60.0785 66.348 59.4362 67.2616C58.8081 68.1752 58.2942 69.0887 57.8945 69.988C57.4948 70.8873 57.3949 71.6582 57.5805 72.3148C58.3513 71.9722 59.1364 71.4012 59.9358 70.6161C60.7351 69.831 61.4489 68.9745 62.0627 68.0324C62.6765 67.0903 63.1047 66.1625 63.3474 65.2489C63.5901 64.321 63.5472 63.5359 63.2046 62.8936Z" fill="#292F36" stroke="white" stroke-miterlimit="10"/>
<path d="M51.9436 83.5489C34.0862 83.5489 19.5547 69.0174 19.5547 51.16C19.5547 33.3025 34.0862 18.7711 51.9436 18.7711C69.8011 18.7711 84.3325 33.3025 84.3325 51.16C84.3325 69.0174 69.8011 83.5489 51.9436 83.5489ZM51.9436 20.1985C34.8713 20.1985 20.9821 34.0876 20.9821 51.16C20.9821 68.2323 34.8713 82.1214 51.9436 82.1214C69.016 82.1214 82.9051 68.2323 82.9051 51.16C82.9051 34.0876 69.016 20.1985 51.9436 20.1985Z" fill="#292F36"/>
</svg>
