<svg width="133" height="44" viewBox="0 0 133 44" fill="none" xmlns="http://www.w3.org/2000/svg">
<path d="M12.1337 0.976501V1.16207L11.3629 1.34764V9.56977L12.1337 9.75534V9.94091H8.47946V9.75534L9.2503 9.56977V2.56098L6.2241 10.0694H5.83866L1.91317 2.56098V9.36993L2.94093 9.75534V9.94091H0.5V9.75534L1.52777 9.36993V1.34764L0.756931 1.16207V0.976501H2.35567C2.59834 0.976501 2.81246 1.00505 2.98376 1.06215C3.15505 1.11925 3.32637 1.19062 3.45484 1.29054C3.59758 1.39046 3.71178 1.50466 3.8117 1.63313C3.91162 1.7616 3.99728 1.91862 4.08292 2.07564L6.88072 7.42859L9.0219 2.07564C9.09327 1.89007 9.16466 1.73305 9.26459 1.60458C9.35023 1.47611 9.4644 1.36191 9.59287 1.26199C9.72134 1.16207 9.87839 1.0907 10.064 1.04787C10.2495 1.00505 10.4779 0.976501 10.7634 0.976501H12.1337Z" fill="#292F36"/>
<path d="M16.702 3.36041C17.2302 3.36041 17.7155 3.43179 18.1295 3.5888C18.5434 3.74582 18.9003 3.97422 19.2001 4.25971C19.4998 4.55947 19.714 4.91634 19.871 5.3303C20.028 5.74426 20.0994 6.22959 20.0994 6.75775C20.0994 7.28591 20.028 7.77124 19.871 8.1852C19.714 8.59917 19.4856 8.95603 19.2001 9.25579C18.9003 9.55556 18.5434 9.76968 18.1295 9.9267C17.7155 10.0837 17.2302 10.1551 16.702 10.1551C16.1739 10.1551 15.6885 10.0837 15.2746 9.9267C14.8606 9.76968 14.5038 9.54129 14.204 9.25579C13.9042 8.95603 13.6901 8.59917 13.5331 8.1852C13.3761 7.77124 13.3047 7.28591 13.3047 6.75775C13.3047 6.22959 13.3761 5.74426 13.5331 5.3303C13.6901 4.91634 13.9185 4.55947 14.204 4.25971C14.5038 3.95994 14.8606 3.74582 15.2746 3.5888C15.6885 3.43179 16.1596 3.36041 16.702 3.36041ZM16.702 9.91242C16.8448 9.91242 16.9875 9.8696 17.1445 9.76968C17.2873 9.66976 17.4157 9.51274 17.5299 9.27007C17.6441 9.0274 17.7441 8.71336 17.8154 8.31368C17.8868 7.89971 17.9296 7.38583 17.9296 6.77203C17.9296 6.14395 17.8868 5.63006 17.8154 5.23038C17.7441 4.83069 17.6441 4.50237 17.5299 4.27398C17.4157 4.04559 17.2873 3.8743 17.1445 3.77438C17.0018 3.67445 16.8591 3.63163 16.702 3.63163C16.5593 3.63163 16.4165 3.67445 16.2595 3.77438C16.1168 3.8743 15.9883 4.03131 15.8741 4.27398C15.7599 4.51665 15.66 4.83069 15.5886 5.23038C15.5172 5.64434 15.4744 6.15822 15.4744 6.77203C15.4744 7.4001 15.5172 7.91399 15.5886 8.31368C15.66 8.71336 15.7599 9.04168 15.8741 9.27007C15.9883 9.49846 16.1168 9.66976 16.2595 9.76968C16.4023 9.85533 16.545 9.91242 16.702 9.91242Z" fill="#292F36"/>
<path d="M26.336 0.976501C27.1068 0.976501 27.4922 1.36191 27.4922 2.13274V9.58405L28.263 9.76962V9.95518H27.1068C26.7928 9.95518 26.5501 9.91236 26.3645 9.81244C26.1789 9.71252 26.0219 9.59832 25.922 9.48413C25.7935 9.34138 25.6936 9.17009 25.6365 8.99879C25.5223 9.22718 25.3796 9.41275 25.2083 9.58405C25.0655 9.72679 24.8657 9.85526 24.623 9.98373C24.3803 10.1122 24.0948 10.1693 23.7665 10.1693C23.3954 10.1693 23.0528 10.0979 22.7387 9.95518C22.4104 9.81244 22.1392 9.59832 21.9108 9.31283C21.6825 9.02734 21.4826 8.67048 21.3542 8.25652C21.2114 7.82828 21.1543 7.34294 21.1543 6.77196C21.1543 6.20098 21.2257 5.71565 21.3542 5.28741C21.4969 4.85918 21.6824 4.51659 21.9394 4.2311C22.182 3.94561 22.4818 3.73149 22.8244 3.58874C23.167 3.446 23.5524 3.37462 23.9807 3.37462C24.2091 3.37462 24.4089 3.40317 24.5945 3.446C24.78 3.50309 24.937 3.56019 25.0655 3.63157C25.2225 3.70294 25.351 3.78859 25.4652 3.88851V1.39046L24.6944 1.20489V1.01933H26.336V0.976501ZM25.4367 4.25964C25.3367 4.15972 25.2511 4.07408 25.1369 4.0027C25.037 3.93133 24.9371 3.87423 24.8229 3.81713C24.7087 3.76004 24.5945 3.74576 24.466 3.74576C24.309 3.74576 24.1519 3.78859 24.0092 3.87423C23.8665 3.95988 23.7522 4.10262 23.6381 4.31674C23.5381 4.53086 23.4525 4.8449 23.3954 5.23031C23.3383 5.63 23.3098 6.12961 23.3098 6.75769C23.3098 7.37149 23.3383 7.85683 23.3954 8.24224C23.4525 8.62765 23.5239 8.92742 23.6238 9.14153C23.7095 9.35565 23.8094 9.51267 23.9378 9.58405C24.052 9.65542 24.1662 9.69824 24.2804 9.69824C24.4803 9.69824 24.6515 9.64114 24.7943 9.54122C24.937 9.4413 25.0512 9.31283 25.1511 9.18436C25.2653 9.02734 25.3653 8.85604 25.4509 8.67048V4.25964H25.4367Z" fill="#292F36"/>
<path d="M32.5605 10.1694C31.4614 10.1694 30.6049 9.86961 30.0054 9.27008C29.3916 8.67055 29.0918 7.82835 29.0918 6.77203C29.0918 6.24388 29.1632 5.75854 29.3202 5.34458C29.4772 4.93062 29.6913 4.57375 29.9626 4.27399C30.2338 3.97422 30.5621 3.76011 30.9618 3.60309C31.3472 3.44607 31.7754 3.37469 32.2465 3.37469C32.7318 3.37469 33.1601 3.44607 33.5312 3.57454C33.9166 3.71728 34.2306 3.90285 34.5019 4.13125C34.7731 4.35964 34.9729 4.63085 35.1157 4.94489C35.2584 5.25893 35.3298 5.58725 35.3298 5.94411C35.3298 6.05831 35.3298 6.1725 35.3155 6.25815C35.3012 6.3438 35.287 6.42945 35.2727 6.50082C35.2441 6.58647 35.2298 6.65784 35.2013 6.71494C34.8302 6.78631 34.4305 6.85768 34.0022 6.9005C33.6454 6.9576 33.2314 7.00043 32.7604 7.02898C32.2893 7.05752 31.804 7.08607 31.2901 7.08607C31.2901 7.61423 31.3329 8.05674 31.4043 8.41361C31.4756 8.77047 31.5898 9.05596 31.7183 9.2558C31.8611 9.46992 32.0181 9.61267 32.2036 9.69831C32.3892 9.78396 32.6034 9.82679 32.8175 9.82679C33.0744 9.82679 33.3171 9.78396 33.5454 9.68404C33.7738 9.58412 33.9737 9.46992 34.1307 9.3129C34.302 9.15588 34.4305 8.97031 34.5304 8.77047C34.6303 8.57063 34.6731 8.37078 34.6731 8.15666H34.9872C34.9872 8.41361 34.9301 8.65627 34.8159 8.89894C34.7017 9.14161 34.5304 9.35572 34.3163 9.54129C34.1022 9.72686 33.8452 9.86961 33.5454 9.9838C33.26 10.1123 32.9316 10.1694 32.5605 10.1694ZM31.2758 6.75776C31.5613 6.75776 31.8182 6.75776 32.0466 6.74349C32.275 6.72921 32.4606 6.71494 32.6176 6.70066C32.8032 6.68639 32.9459 6.65784 33.0744 6.64356C33.0887 6.55791 33.1172 6.45799 33.1315 6.35807C33.1458 6.25815 33.1601 6.15823 33.1743 6.04403C33.1886 5.92984 33.1886 5.80137 33.1886 5.6729C33.1886 5.28748 33.16 4.95917 33.1029 4.70223C33.0458 4.44529 32.9745 4.23117 32.8745 4.05987C32.7889 3.90285 32.689 3.77438 32.5605 3.71728C32.432 3.66019 32.3321 3.61736 32.2179 3.61736C32.1037 3.61736 31.9895 3.66019 31.8753 3.74583C31.7612 3.83148 31.6612 3.9885 31.5613 4.20262C31.4757 4.43101 31.39 4.74505 31.3329 5.15901C31.2758 5.57297 31.2758 6.10113 31.2758 6.75776Z" fill="#292F36"/>
<path d="M40.7265 3.80287C40.4695 3.80287 40.2412 3.85997 40.0413 3.95989C39.8415 4.05981 39.6702 4.18828 39.5274 4.31675C39.3704 4.47377 39.2419 4.64507 39.1134 4.83064V9.58406L39.8843 9.76963V9.9552H36.2871V9.76963L37.0579 9.58406V3.93134L36.2871 3.74577V3.5602H37.4433C37.7431 3.5602 37.9858 3.6173 38.1856 3.71722C38.3712 3.81714 38.5282 3.93134 38.6424 4.04554C38.7709 4.18828 38.8708 4.3453 38.9279 4.5166C39.0564 4.33103 39.2134 4.15973 39.3989 4.00271C39.556 3.87424 39.7558 3.76005 39.9985 3.64585C40.2412 3.53166 40.5124 3.48883 40.8407 3.48883C41.2975 3.48883 41.6401 3.60303 41.8685 3.80287C42.0969 4.01699 42.1967 4.31675 42.1967 4.70217C42.1967 4.98766 42.1111 5.23032 41.9398 5.40162C41.7685 5.57291 41.5259 5.65856 41.2404 5.65856C41.169 5.65856 41.1119 5.65856 41.0405 5.65856C40.9691 5.65856 40.9263 5.64429 40.8835 5.64429C40.8264 5.63001 40.7693 5.63001 40.7265 5.60146V3.80287Z" fill="#292F36"/>
<path d="M47.7208 5.47304C47.7208 5.18755 47.6923 4.93061 47.6352 4.71649C47.5781 4.50237 47.5067 4.33107 47.4068 4.2026C47.3212 4.05986 47.2212 3.95993 47.0928 3.90284C46.9786 3.84574 46.8643 3.80292 46.7501 3.80292C46.5503 3.80292 46.379 3.86001 46.2363 3.95994C46.0935 4.05986 45.9651 4.18833 45.8794 4.3168C45.7652 4.47382 45.6796 4.64511 45.5939 4.83068V9.5841L46.3647 9.76967V9.95524H42.7676V9.76967L43.5384 9.5841V3.93139L42.7676 3.74582V3.56025H43.9238C44.2236 3.56025 44.4662 3.61735 44.6661 3.71727C44.8516 3.81719 45.0087 3.93139 45.1229 4.04558C45.2513 4.18833 45.3512 4.34535 45.4083 4.51664C45.5225 4.30252 45.6653 4.10268 45.8366 3.93139C45.9793 3.78864 46.1792 3.66017 46.4076 3.5317C46.636 3.40323 46.9357 3.34613 47.2783 3.34613C47.6494 3.34613 47.9921 3.40323 48.2918 3.5317C48.6059 3.6459 48.8628 3.81719 49.0769 4.00276C49.291 4.2026 49.4623 4.41672 49.5908 4.67366C49.7193 4.9306 49.7763 5.18754 49.7763 5.45876V9.56983L50.5472 9.7554V9.94097H48.8771C48.1063 9.94097 47.7208 9.55555 47.7208 8.78473V5.47304Z" fill="#292F36"/>
<path d="M1.85547 18.9767V18.4485H11.7762V18.9767L9.69217 19.5049V30.2821H17.172V19.5049L15.0879 18.9767V18.4485H25.0088V18.9767L22.9247 19.5049V41.7731L25.0088 42.3013V42.8295H15.0879V42.287L17.172 41.7589V31.1529H9.69217V41.7589L11.7762 42.287V42.8152H1.85547V42.287L3.93954 41.7589V19.4906L1.85547 18.9767Z" fill="#292F36"/>
<path d="M37.3424 24.8864C38.7842 24.8864 40.0689 25.1005 41.2108 25.5144C42.3528 25.9284 43.3092 26.5422 44.1085 27.3416C44.9079 28.1409 45.5217 29.1116 45.9357 30.2536C46.3496 31.3955 46.5638 32.6803 46.5638 34.122C46.5638 35.5637 46.3496 36.8484 45.9357 37.9904C45.5217 39.1323 44.9079 40.0887 44.1085 40.8881C43.3092 41.6875 42.3385 42.3013 41.2108 42.7153C40.0689 43.1292 38.7842 43.3433 37.3424 43.3433C35.9007 43.3433 34.616 43.1292 33.474 42.7153C32.3321 42.3013 31.3757 41.6875 30.5763 40.8881C29.7769 40.0887 29.1631 39.1181 28.7492 37.9904C28.3352 36.8484 28.1211 35.5637 28.1211 34.122C28.1211 32.6803 28.3352 31.3955 28.7492 30.2536C29.1631 29.1116 29.7769 28.1552 30.5763 27.3416C31.3757 26.5279 32.3464 25.9284 33.474 25.5144C34.616 25.1005 35.9007 24.8864 37.3424 24.8864ZM37.3424 42.6296C37.7421 42.6296 38.1276 42.5011 38.5272 42.2442C38.9269 41.9872 39.2695 41.5447 39.5835 40.9024C39.8976 40.26 40.1545 39.3893 40.3544 38.2901C40.5542 37.191 40.6541 35.7921 40.6541 34.0934C40.6541 32.3948 40.5542 30.9959 40.3544 29.8967C40.1545 28.7976 39.8976 27.9268 39.5835 27.2845C39.2695 26.6421 38.9127 26.1996 38.5272 25.9427C38.1418 25.6857 37.7421 25.5573 37.3424 25.5573C36.9427 25.5573 36.5574 25.6857 36.1577 25.9427C35.758 26.1996 35.4154 26.6421 35.1013 27.2845C34.7873 27.9268 34.5304 28.7976 34.3305 29.8967C34.1307 30.9959 34.0307 32.3948 34.0307 34.0934C34.0307 35.7921 34.1307 37.191 34.3305 38.2901C34.5304 39.3893 34.7873 40.26 35.1013 40.9024C35.4154 41.5447 35.7723 41.9872 36.1577 42.2442C36.5574 42.5011 36.9427 42.6296 37.3424 42.6296Z" fill="#292F36"/>
<path d="M72.6443 30.6247C72.6443 29.7968 72.573 29.0831 72.4302 28.5263C72.2875 27.9696 72.1162 27.4986 71.8878 27.1417C71.6594 26.7849 71.4167 26.5279 71.1598 26.3566C70.8885 26.1996 70.6316 26.1139 70.3747 26.1139C69.9322 26.1139 69.5467 26.2567 69.2042 26.5422C68.8616 26.8277 68.5761 27.156 68.3191 27.4986C68.0479 27.9125 67.791 28.3836 67.5911 28.8832V41.7588L69.6895 42.287V42.8152H59.9542V42.287L62.0384 41.7588V30.6247C62.0384 29.7968 61.9669 29.0831 61.8242 28.5263C61.6815 27.9696 61.5102 27.4986 61.2818 27.1417C61.0534 26.7849 60.8107 26.5279 60.5538 26.3566C60.2826 26.1996 60.0256 26.1139 59.7687 26.1139C59.3262 26.1139 58.9408 26.2567 58.5982 26.5422C58.2556 26.8277 57.9701 27.156 57.7131 27.4986C57.4276 27.9125 57.185 28.3836 56.9852 28.8832V41.7588L59.0692 42.287V42.8152H49.334V42.287L51.4181 41.7588V26.4565L49.334 25.9284V25.4002H52.4601C53.2738 25.4002 53.9447 25.543 54.4585 25.8142C54.9867 26.0854 55.3864 26.3994 55.7005 26.7135C56.043 27.1132 56.3 27.5414 56.4713 27.9982C56.771 27.4129 57.1422 26.899 57.5847 26.428C57.9844 26.0283 58.4697 25.6714 59.0407 25.3431C59.626 25.0148 60.3254 24.8578 61.1676 24.8578C62.5522 24.8578 63.7655 25.1718 64.7648 25.7856C65.7782 26.3994 66.5491 27.1988 67.0773 28.1695C67.377 27.5699 67.7482 27.0275 68.1907 26.5279C68.5904 26.114 69.0757 25.7285 69.6467 25.3859C70.2319 25.0434 70.9314 24.8578 71.7736 24.8578C72.7299 24.8578 73.5864 25.0148 74.3858 25.3146C75.1709 25.6143 75.8561 26.0283 76.4271 26.5565C76.998 27.0846 77.4405 27.6841 77.7546 28.3836C78.0686 29.0831 78.2257 29.8253 78.2257 30.6104V41.7446L80.3097 42.2727V42.8009H75.7847C73.7006 42.8009 72.6586 41.7588 72.6586 39.6748V30.6247H72.6443Z" fill="#292F36"/>
<path d="M91.7852 43.329C88.8161 43.329 86.5037 42.5154 84.8621 40.8738C83.2205 39.2323 82.3926 36.9911 82.3926 34.1077C82.3926 32.666 82.6067 31.3813 83.0207 30.2393C83.4346 29.0973 84.0199 28.1409 84.7622 27.3273C85.5044 26.5279 86.4037 25.9141 87.4601 25.5001C88.5164 25.0862 89.6726 24.8721 90.9145 24.8721C92.2135 24.8721 93.384 25.0576 94.4118 25.4288C95.4395 25.7999 96.3245 26.2995 97.0383 26.9276C97.752 27.5557 98.3087 28.298 98.6941 29.1402C99.0795 29.9824 99.2651 30.8816 99.2651 31.838C99.2651 32.1664 99.2508 32.4518 99.208 32.6945C99.1652 32.9372 99.1366 33.1513 99.0795 33.3369C99.0081 33.5653 98.951 33.7651 98.9082 33.9221C97.8805 34.1362 96.8099 34.3075 95.6679 34.4503C94.6973 34.593 93.5695 34.7072 92.2991 34.8214C91.0287 34.9213 89.6869 34.9784 88.3023 34.9784C88.3023 36.4202 88.4022 37.6192 88.6163 38.5756C88.8304 39.532 89.1159 40.3028 89.487 40.8738C89.8582 41.4448 90.3007 41.8445 90.8145 42.0872C91.3284 42.3298 91.8852 42.4583 92.4847 42.4583C93.1841 42.4583 93.8408 42.3298 94.4546 42.0729C95.0684 41.8159 95.5965 41.4734 96.0533 41.0451C96.5101 40.6169 96.867 40.1315 97.1382 39.5891C97.4094 39.0467 97.5379 38.49 97.5379 37.9333H98.4086C98.4086 38.6327 98.2516 39.3036 97.9376 39.946C97.6235 40.6026 97.181 41.1736 96.5958 41.6732C96.0105 42.1728 95.3253 42.5725 94.5117 42.8723C93.6838 43.172 92.7702 43.329 91.7852 43.329ZM88.3023 34.1077C89.0874 34.1077 89.7868 34.0934 90.3863 34.0506C90.9859 34.0078 91.4998 33.9792 91.9137 33.9364C92.399 33.8936 92.813 33.8365 93.1699 33.7651C93.2127 33.5367 93.2698 33.2798 93.3412 32.9943C93.384 32.7373 93.4268 32.4518 93.4553 32.1378C93.4839 31.8238 93.5125 31.4955 93.5125 31.1529C93.5125 30.1108 93.4268 29.2401 93.2698 28.5263C93.1127 27.8126 92.8986 27.2416 92.656 26.7991C92.4133 26.3566 92.1278 26.0426 91.8281 25.857C91.514 25.6714 91.2 25.5715 90.9002 25.5715C90.6004 25.5715 90.2864 25.6857 89.9724 25.8998C89.6583 26.1282 89.3871 26.5422 89.1444 27.156C88.9018 27.7698 88.7019 28.6405 88.5307 29.754C88.3879 30.8674 88.3023 32.3234 88.3023 34.1077Z" fill="#292F36"/>
<path d="M117.353 42.4583V28.3408L104.877 18.4628V42.4583H117.353Z" fill="#292F36"/>
<path d="M132.782 42.4583V28.3408L120.506 18.4628V42.4583H132.782Z" fill="#292F36"/>
</svg>
