<svg width="146" height="45" viewBox="0 0 146 45" fill="none" xmlns="http://www.w3.org/2000/svg">
<path d="M20.7244 8.95747L21.795 8.72908C22.0662 8.72908 22.2946 8.78618 22.4516 8.90038C22.6087 9.01457 22.6943 9.12877 22.6943 9.22869C22.6943 9.32861 22.6658 9.48563 22.6229 9.6712C22.5801 9.85677 22.1804 11.7696 21.4381 15.381C20.6959 18.9925 20.1534 21.6904 19.8108 23.4604C21.4667 21.205 23.408 18.4358 25.6206 15.1383C27.8331 11.8409 29.1321 9.65693 29.5033 8.57206C29.6175 8.22947 29.7745 7.97253 29.96 7.78696C30.1456 7.60139 30.3169 7.4872 30.4597 7.45865C30.6024 7.4301 30.8308 7.40155 31.1306 7.40155C31.4303 7.40155 31.7872 7.47292 32.2012 7.6014C32.6151 7.72987 32.8292 7.94398 32.8292 8.25802C32.8292 8.829 31.9728 10.4991 30.2741 13.2398C28.5754 15.9805 26.6198 18.8925 24.4215 21.9758C22.2233 25.0591 20.3961 27.5001 18.9258 29.2987C18.6689 29.6127 18.3406 29.784 17.9694 29.784C17.5983 29.784 17.1986 29.7127 16.7846 29.5842C16.3707 29.4557 16.1566 29.2273 16.1566 28.8847C16.1566 27.8141 17.0987 22.6468 18.9829 13.4111C17.3699 15.4952 15.4143 18.4072 13.1161 22.1329C10.718 25.987 9.36189 28.3851 9.04785 29.2987C8.87656 29.8554 8.67672 30.1837 8.44833 30.2694C8.29131 30.3407 8.12 30.3693 7.94871 30.3693L6.79248 30.4977C6.56408 30.4977 6.36424 30.4406 6.16439 30.3122C5.97882 30.1837 5.87891 30.0552 5.87891 29.9125C5.87891 29.5271 6.42135 28.3566 7.49194 26.4152C8.56253 24.4739 9.83295 22.3613 11.2747 20.0773C12.7164 17.7934 14.2152 15.5809 15.7854 13.4254C17.3556 11.27 18.569 9.81395 19.4254 9.08595C19.5967 8.92893 19.7966 8.85755 20.025 8.85755L20.7244 8.95747Z" fill="#292F36"/>
<path d="M37.882 18.6358C38.6243 18.6358 38.9954 18.8927 38.9954 19.3923C38.9954 19.6635 38.9383 19.8634 38.8098 19.9918C38.6814 20.1203 38.4101 20.5343 37.9962 21.2623C37.5822 21.976 37.1254 22.8896 36.6258 24.0173C36.1262 25.1307 35.7979 26.0871 35.6552 26.8722C35.6266 26.9721 35.6123 27.1006 35.6123 27.2861C35.6123 27.8286 35.7551 28.0855 36.0549 28.0855C36.3546 28.0855 36.6972 27.9428 37.0969 27.6715C37.4966 27.386 37.8534 27.1006 38.1675 26.7722C38.4815 26.4582 38.7813 26.1299 39.081 25.8016C39.3808 25.4733 39.5521 25.2734 39.6092 25.2306C39.6663 25.1878 39.752 25.1592 39.8661 25.1592C40.0517 25.1592 40.1659 25.302 40.2087 25.5875C40.2516 25.8729 40.2658 26.1584 40.2658 26.4725C40.2658 26.7865 40.2373 26.9864 40.1802 27.1006C39.8947 27.6573 39.2809 28.3282 38.3102 29.1133C37.3538 29.8984 36.4688 30.2838 35.6837 30.2838C34.8986 30.2838 34.3134 30.0411 33.9565 29.57C33.5996 29.099 33.3998 28.5566 33.3998 27.9856C33.3998 27.4003 33.4997 26.9007 33.6996 26.4582C32.8859 27.5145 31.9581 28.3995 30.916 29.1418C29.8597 29.8698 29.0175 30.241 28.3466 30.241C27.6757 30.241 27.1476 30.0411 26.7193 29.6414C26.1769 29.1418 25.9199 28.4566 25.9199 27.5716C25.9199 26.6866 26.1198 25.8016 26.5194 24.9023C26.9191 24.0173 27.433 23.1893 28.0754 22.4613C28.7177 21.7191 29.4315 21.0482 30.2023 20.4486C31.8153 19.1782 33.3141 18.5501 34.6845 18.5501C35.2126 18.5501 35.6409 18.6358 35.9692 18.8071C36.2975 18.9783 36.5116 19.2067 36.5973 19.4637C36.8257 19.1068 37.0255 18.8927 37.1968 18.7928C37.3253 18.6786 37.5679 18.6358 37.882 18.6358ZM35.9407 20.2631C34.2705 20.2631 32.5433 21.1909 30.759 23.0466C30.1309 23.7175 29.5457 24.5026 29.0032 25.4304C28.4608 26.3583 28.2039 26.9864 28.2039 27.3289C28.2039 27.6715 28.3038 27.8428 28.5036 27.8428C28.7748 27.8428 29.5314 27.3004 30.7875 26.2298C32.0437 25.1592 32.8716 24.3598 33.2713 23.846C33.7281 23.275 34.6131 22.0759 35.9407 20.2631Z" fill="#292F36"/>
<path d="M48.9874 10.8988L49.5869 11.0415C49.6726 11.0415 49.7582 11.0844 49.8153 11.17C49.8867 11.2557 49.9152 11.3413 49.9152 11.4127C49.9152 11.4841 49.8153 11.6982 49.6012 12.0408C49.3871 12.3834 49.1587 12.7688 48.8732 13.197C48.5877 13.6252 48.445 13.8679 48.4307 13.9107C49.1872 13.8536 49.7297 13.8251 50.0437 13.8251C50.3577 13.8251 50.5719 13.8536 50.7003 13.8965C50.8145 13.9393 50.9573 14.0678 51.1 14.2676C51.257 14.4674 51.3855 14.6245 51.514 14.7244C51.6425 14.8243 51.6996 14.9813 51.6996 15.1812C51.6996 15.381 51.5711 15.5666 51.3284 15.695C51.0857 15.8378 50.8145 15.9234 50.529 15.952C48.2594 16.1804 47.0175 16.2946 46.7891 16.3089C46.004 17.5222 44.8906 19.4064 43.4774 21.9616C42.0642 24.5167 41.3077 26.1297 41.222 26.7721C41.1792 27.0719 41.1649 27.3002 41.1649 27.4858C41.1649 27.8712 41.3648 28.0568 41.7645 28.0568C42.1642 28.0568 42.6067 27.8998 43.092 27.6C43.5773 27.286 44.0341 26.9577 44.4338 26.6008C45.5329 25.6301 46.1182 25.1305 46.1896 25.1305C46.4465 25.1305 46.575 25.573 46.575 26.4438C46.575 26.9148 46.3609 27.3431 45.9184 27.7285C44.9334 28.5707 44.1055 29.213 43.4346 29.6413C42.7637 30.0695 42.0928 30.2836 41.4076 30.2836C41.2649 30.2836 41.1221 30.2693 40.9937 30.2408C40.2086 30.0981 39.6376 29.8126 39.2807 29.3843C38.9096 28.9561 38.7383 28.3851 38.7383 27.6714C38.7383 26.9577 38.9524 26.0726 39.3806 25.0449C39.8089 24.0171 40.337 22.918 40.9794 21.7617C42.0357 19.8632 43.092 18.0932 44.1341 16.4373L43.5773 16.5087C42.4497 16.6372 41.793 16.6943 41.6075 16.6943H41.479C41.1935 16.6943 40.9223 16.6372 40.6653 16.523C40.4084 16.4088 40.2656 16.266 40.2656 16.109C40.2656 15.9377 40.337 15.7807 40.4798 15.6237C40.6225 15.4667 40.7082 15.3382 40.7367 15.2525C40.8081 15.0384 41.065 14.7958 41.5075 14.5388C41.95 14.2819 42.2784 14.1391 42.5068 14.1248C42.7352 14.1106 42.9493 14.0963 43.1634 14.082C43.3775 14.0678 43.6059 14.0677 43.8628 14.0535C44.1198 14.0392 44.3196 14.0392 44.4624 14.0249L45.7756 13.9678C46.5893 12.7402 47.1603 11.9408 47.46 11.5983C47.7741 11.2414 47.9454 11.0558 47.9882 11.0273C48.031 10.9987 48.1309 10.9702 48.2879 10.9702L48.9874 10.8988Z" fill="#292F36"/>
<path d="M57.7668 25.1592C57.9523 25.1592 58.0665 25.3019 58.1093 25.5874C58.1522 25.8729 58.1665 26.1584 58.1665 26.4724C58.1665 26.7865 58.1379 26.9863 58.0808 27.1005C57.7953 27.6429 57.1815 28.3138 56.2251 29.0989C55.2687 29.884 54.3551 30.2837 53.4987 30.2837C52.9705 30.2837 52.4852 30.1267 52.0284 29.8127C51.5859 29.4986 51.3575 28.9419 51.3575 28.1568C51.3575 27.3717 51.5716 26.5866 51.9856 25.8301C49.5589 28.8706 47.6747 30.3837 46.29 30.3837C45.7476 30.3837 45.3051 30.1838 44.9625 29.7984C44.6199 29.413 44.4629 29.0133 44.4629 28.5851C44.4629 28.1711 44.52 27.7429 44.6342 27.3004C44.7484 26.8578 44.8769 26.4582 45.0053 26.1013C45.1338 25.7444 45.3336 25.3162 45.5906 24.8023C45.8475 24.2884 46.0474 23.9173 46.1616 23.6746C46.2758 23.432 46.4899 23.0894 46.7754 22.6183C47.0608 22.1472 47.4177 21.5049 47.8745 20.7055C48.3313 19.9061 48.7024 19.3066 49.0022 18.9212C49.3019 18.5358 49.5874 18.3359 49.8729 18.3359C50.1584 18.3359 50.4011 18.4501 50.6152 18.6785C50.8293 18.9069 50.9435 19.1068 50.9435 19.2495C50.9435 19.3923 50.6152 20.0489 49.9586 21.2194C48.0315 24.7167 47.0609 26.7436 47.0609 27.3289C47.0609 27.4716 47.1179 27.543 47.2179 27.543C47.6889 27.543 48.8595 26.5295 50.7151 24.5025C52.5708 22.4756 53.6557 21.1766 53.9554 20.6056C54.2552 20.0346 54.5264 19.5493 54.8119 19.1639C55.0831 18.7785 55.2973 18.5358 55.44 18.4501C55.854 18.1789 56.3964 18.0362 57.0673 18.0076C57.1815 18.0076 57.2529 18.0076 57.31 18.0219C57.3671 18.0362 57.4384 18.1218 57.5098 18.2646C57.5812 18.4073 57.624 18.5358 57.624 18.6357C57.5384 18.9069 57.1529 19.6349 56.4535 20.8197C55.7683 22.0045 55.3829 22.6754 55.3115 22.8181C54.1553 25.202 53.5843 26.7579 53.5843 27.4716C53.5843 27.8856 53.7413 28.0855 54.0554 28.0855C54.6264 28.0141 55.3115 27.5573 56.1109 26.7294C56.4107 26.4296 56.6962 26.1156 56.9817 25.8015C57.2672 25.4875 57.4527 25.3019 57.5098 25.2591C57.5812 25.1877 57.6668 25.1592 57.7668 25.1592Z" fill="#292F36"/>
<path d="M62.0059 21.7761C64.3041 19.1639 66.274 17.8506 67.887 17.8506C68.2867 17.8506 68.615 17.9648 68.872 18.2075C69.1289 18.4502 69.2574 18.7499 69.2574 19.1353C69.2574 19.5207 68.9862 20.1488 68.4437 21.0481C67.9013 21.9331 67.4017 22.6897 66.9449 23.3035C66.7022 23.6175 66.431 23.7746 66.117 23.7746C65.8172 23.7746 65.5745 23.6604 65.4032 23.432C65.232 23.2036 65.1463 22.9466 65.1463 22.6469C65.1463 21.976 65.5032 21.2051 66.2312 20.3629L66.2026 20.3344C65.8743 20.3629 65.0892 21.0053 63.8045 22.2329C62.5341 23.4748 61.4492 24.5882 60.5499 25.5589C59.6649 26.5438 58.6942 27.7286 57.6379 29.1418C57.3381 29.5557 57.0812 29.7699 56.8671 29.7699C56.653 29.7699 56.3817 29.6985 56.0392 29.57C55.6966 29.4415 55.4824 29.3416 55.4111 29.2845C55.3397 29.2274 55.2969 29.1275 55.2969 28.9848C55.2969 28.8563 55.3397 28.685 55.4111 28.5137C55.4824 28.3281 55.6395 28.0712 55.8393 27.7429C56.0392 27.4146 56.3675 26.8721 56.7957 26.1299C57.2239 25.3876 57.8806 24.2599 58.7799 22.7611C59.6792 21.2622 60.2073 20.3487 60.3929 20.0346C60.764 19.3923 61.0638 18.9212 61.3065 18.6357C61.749 18.079 62.4912 17.8078 63.5333 17.8078C63.7617 17.8078 63.8902 17.9505 63.8902 18.2503C63.8902 18.7071 63.4619 19.5778 62.6197 20.834L62.0059 21.7761Z" fill="#292F36"/>
<path d="M77.7513 18.807C77.7513 19.4493 77.4943 20.0203 76.9662 20.5056C76.438 20.991 75.8528 21.2336 75.1819 21.2336C74.9678 21.2336 74.825 21.1765 74.7536 21.0766C74.6823 20.9767 74.6537 20.8339 74.6537 20.6769C74.6537 20.5199 74.668 20.3486 74.7108 20.1916C74.3539 20.3058 73.9685 20.4914 73.5403 20.734C73.1121 20.9767 72.5839 21.3336 71.9558 21.8189C71.3277 22.3042 71.0137 22.6468 71.0137 22.8895C71.0137 22.9609 71.1279 23.0037 71.3563 23.0037C71.5847 23.0037 71.9415 22.918 72.4126 22.761C72.8837 22.604 73.2263 22.5183 73.4118 22.5183C73.5974 22.5183 73.7259 22.5326 73.783 22.5469C73.9114 22.6183 74.0399 22.761 74.1969 22.9894C74.3397 23.2178 74.411 23.4034 74.411 23.5318C74.411 23.6603 74.2826 23.8316 74.0256 24.0457C73.7687 24.2598 73.4832 24.4169 73.1692 24.531C72.8408 24.6452 72.6267 24.7309 72.5268 24.788C70.4713 25.9442 69.4435 26.7293 69.4435 27.1576C69.4435 27.9141 70.0859 28.2995 71.3848 28.2995C72.2128 28.2995 73.055 28.0426 73.8829 27.5144C74.5966 27.0719 75.239 26.6151 75.81 26.1441C76.3809 25.6873 76.7378 25.4018 76.8948 25.2876C77.0518 25.1734 77.166 25.1306 77.2374 25.1306C77.4944 25.1306 77.6228 25.4161 77.6228 25.9871C77.6228 26.558 77.5943 26.9292 77.5229 27.1005C77.4515 27.286 77.2659 27.5002 76.9376 27.7714C74.8536 29.47 72.8694 30.3265 71.0137 30.3265C70.0145 30.3265 69.2294 30.1838 68.6298 29.9125C67.5307 29.4129 66.9883 28.6564 66.9883 27.6286C66.9883 26.2868 67.9161 25.259 69.7861 24.5739C69.415 24.4026 69.1723 24.2027 69.0724 23.9315C68.9582 23.6746 68.9154 23.2606 68.9154 22.6896C68.9154 22.1186 69.1866 21.5191 69.7147 20.8768C70.2429 20.2344 70.8995 19.7063 71.6703 19.3066C73.3833 18.3787 74.9249 17.9219 76.2667 17.9219C76.595 17.9219 76.9091 17.9933 77.2517 18.1503C77.5943 18.3073 77.7513 18.5215 77.7513 18.807Z" fill="#292F36"/>
<path d="M111.069 8.87192H111.254C111.311 8.87192 111.354 8.87192 111.369 8.88619C111.383 8.90046 111.397 8.90047 111.426 8.91474C111.454 8.91474 111.468 8.92901 111.497 8.95756C111.54 9.00039 111.611 9.04321 111.697 9.08603C111.811 9.17168 111.868 9.2716 111.868 9.3858C111.868 9.5 111.754 9.74266 111.526 10.1138C111.297 10.4849 110.712 11.3842 109.755 12.8402C107.571 16.1805 105.616 19.2923 103.889 22.1472C100.905 27.1148 99.3922 29.6128 99.3636 29.6414C99.3351 29.6699 99.3208 29.6985 99.3065 29.727C99.2923 29.7841 99.2637 29.8127 99.1923 29.8127L98.9925 29.7698L98.5928 29.8698L98.3644 29.8269L98.1217 29.8698H98.0361L97.2225 29.984C96.7371 29.984 96.4944 29.8127 96.4944 29.4843C96.4944 29.3416 96.5373 29.1703 96.6229 28.9705C96.9227 28.2567 98.4501 25.673 101.191 21.1908C99.3922 21.2337 97.6079 21.2622 95.8521 21.2622L92.7117 21.2479C92.1978 22.0759 91.4841 23.2464 90.5848 24.7737C88.6434 28.0997 87.6157 29.7698 87.4872 29.7984C87.3587 29.8269 87.2588 29.8555 87.1732 29.8555C87.0875 29.8555 87.0162 29.8127 86.9591 29.7127C86.8877 29.6271 86.8449 29.57 86.8163 29.57C86.7878 29.57 86.7449 29.5843 86.6593 29.6271C86.5879 29.6699 86.4737 29.6842 86.3167 29.6842L85.9741 29.6699L85.8457 29.5843C85.8314 29.5843 85.8171 29.5985 85.8028 29.6271C85.7886 29.6556 85.7457 29.6699 85.6886 29.6699C85.2747 29.6699 85.0605 29.4986 85.0605 29.1418C85.0605 28.9134 85.1462 28.5993 85.3032 28.2139C85.4745 27.8285 85.6886 27.4145 85.9598 26.972C86.2311 26.5295 86.9162 25.4589 88.0439 23.7888C89.1573 22.1187 89.714 21.2765 89.714 21.2622C89.5285 21.2479 89.3144 21.2479 89.0717 21.2337C88.5721 21.2337 88.2295 21.2194 88.0154 21.1766C87.4587 21.0766 87.0733 20.6199 86.8734 19.8062C86.7592 19.4065 86.7164 19.1496 86.7307 19.0211C86.7307 18.7642 86.8449 18.6214 87.0733 18.6214L87.4587 18.7213C87.6585 18.7356 88.1153 18.7499 88.8576 18.7927C89.5999 18.8355 90.128 18.8498 90.4563 18.8498L91.2842 18.8213C92.5547 16.8371 94.0678 14.5817 95.8378 12.0694C94.5531 13.1257 93.1257 13.6539 91.5555 13.6539C90.8132 13.6539 90.1708 13.4826 89.6427 13.1257C89.1002 12.7689 88.8433 12.3121 88.8433 11.7696C88.8433 11.2272 89.0431 10.799 89.4571 10.4707C89.8711 10.1566 90.2565 9.9996 90.6276 9.9996C90.9987 9.9996 91.1843 10.0567 91.1843 10.1709C91.1843 10.2137 91.1272 10.2565 91.0273 10.2994C90.9274 10.3565 90.8703 10.3993 90.8703 10.4421C90.8703 10.5991 91.0416 10.7419 91.3842 10.8561C91.7267 10.9703 92.1122 11.0416 92.5404 11.0416C92.9686 11.0416 93.4825 10.9132 94.1106 10.6705C94.7387 10.4278 95.381 10.0995 96.0519 9.71411C96.9941 9.17168 97.7363 8.71489 98.2788 8.35803C98.5928 8.20101 98.8783 8.12964 99.1638 8.12964C99.4493 8.12964 99.6349 8.15819 99.7633 8.22956C99.8918 8.28666 99.9774 8.35803 100.035 8.41513C100.092 8.47223 100.163 8.55788 100.22 8.6578C100.291 8.75772 100.349 8.84337 100.42 8.88619C100.477 8.94329 100.52 9.00039 100.52 9.07176C100.52 9.14313 100.477 9.24305 100.406 9.40007C100.334 9.54282 99.9632 10.1423 99.2923 11.1844C98.6214 12.2264 97.7506 13.554 96.6943 15.167C95.638 16.78 94.8672 17.9648 94.3818 18.7356C96.9941 18.7356 99.8061 18.6928 102.832 18.5929C106.515 12.7831 108.457 9.74266 108.656 9.45717C108.856 9.17168 109.042 8.98611 109.213 8.90046C109.384 8.81482 109.584 8.77199 109.827 8.77199L111.069 8.87192Z" fill="#292F36"/>
<path d="M115.836 18.6071C116.136 18.6071 116.436 18.7356 116.735 19.0068C117.049 19.278 117.192 19.6777 117.192 20.2202C117.192 20.7626 117.007 21.462 116.621 22.3328C116.236 23.1893 115.722 24.0743 115.051 24.9736C114.394 25.8586 113.652 26.7008 112.867 27.4859C112.068 28.271 111.211 28.9133 110.297 29.413C109.37 29.9126 108.542 30.1695 107.785 30.1695C107.029 30.1695 106.429 29.9268 105.972 29.4558C105.515 28.9847 105.287 28.3281 105.287 27.4859C105.287 26.6437 105.501 25.7016 105.915 24.6881C106.329 23.6603 106.857 22.761 107.514 21.9759C108.171 21.1908 108.87 20.4914 109.641 19.8633C111.225 18.5786 112.624 17.9505 113.823 17.9505C114.366 17.9505 114.765 18.079 115.037 18.3502C115.137 18.4358 115.179 18.5215 115.179 18.5786V18.6642C115.336 18.6071 115.55 18.6071 115.836 18.6071ZM114.366 20.5485H114.266C113.923 20.5485 113.752 20.3058 113.752 19.8062C113.038 20.0346 112.296 20.4485 111.511 21.0338C110.726 21.6191 110.026 22.3185 109.412 23.1179C108.156 24.7166 107.528 26.0727 107.514 27.1719C107.514 27.7143 107.714 27.9855 108.113 27.9855C108.513 27.9855 109.113 27.7143 109.898 27.2004C110.683 26.6865 111.468 25.93 112.253 24.945C113.024 23.9744 113.609 23.1179 113.995 22.4042C114.38 21.6904 114.58 21.2051 114.58 20.9339C114.566 20.6769 114.494 20.5485 114.366 20.5485Z" fill="#292F36"/>
<path d="M116.877 29.8412L116.164 29.8126H115.907C115.807 29.7841 115.707 29.727 115.593 29.6413C115.478 29.5557 115.393 29.4843 115.336 29.4557C115.279 29.4272 115.25 29.3415 115.25 29.2416C115.25 29.1417 115.293 28.9561 115.364 28.7135C117.263 24.531 119.104 21.1765 120.888 18.6785C121.088 18.4073 121.402 18.1931 121.831 18.0504C122.259 17.9076 122.687 17.8363 123.101 17.8363C123.344 17.8363 123.472 18.0218 123.472 18.4073C123.472 18.5214 123.429 18.6642 123.358 18.8355C123.287 19.0211 123.087 19.3065 122.773 19.7205C122.459 20.1345 122.088 20.6055 121.659 21.1194C121.231 21.6333 120.988 21.9473 120.931 22.033C122.273 20.6484 123.472 19.6206 124.557 18.9354C125.642 18.2645 126.413 17.9219 126.898 17.9219C127.383 17.9219 127.754 18.0647 128.011 18.3359C128.268 18.6071 128.397 18.9069 128.397 19.2209C128.397 19.5349 128.368 19.8062 128.325 20.006C128.283 20.2201 128.197 20.4342 128.083 20.6626C127.969 20.891 127.869 21.0909 127.783 21.2479C127.697 21.4049 127.555 21.619 127.369 21.876C127.169 22.1329 127.041 22.3185 126.969 22.4184C126.898 22.5183 126.741 22.7039 126.513 22.9751C126.284 23.2463 126.156 23.4033 126.141 23.4319C126.413 23.1607 126.798 22.761 127.283 22.2186C127.769 21.6761 128.183 21.2336 128.525 20.8768C128.868 20.5199 129.282 20.1059 129.796 19.6491C130.31 19.1924 130.781 18.8212 131.209 18.55C132.265 17.8934 133.336 17.5508 134.421 17.5508C134.792 17.5508 135.106 17.665 135.363 17.9076C135.62 18.1503 135.748 18.4215 135.748 18.7498C135.748 19.0782 135.349 19.8633 134.563 21.0909C133.778 22.3185 132.979 23.5604 132.194 24.8022C131.409 26.0441 131.009 26.8292 131.009 27.1575C131.009 27.6001 131.095 27.8713 131.252 27.9569C131.423 28.0426 131.623 28.0711 131.851 28.0568C132.08 28.0426 132.422 27.8855 132.836 27.6001C133.264 27.3146 133.636 27.0291 133.964 26.715C134.506 26.2297 134.992 25.7586 135.463 25.3019C135.563 25.2162 135.663 25.1734 135.791 25.1734C135.977 25.1734 136.091 25.3161 136.134 25.6016C136.176 25.8871 136.191 26.1726 136.191 26.4866C136.191 26.8007 136.162 27.0005 136.105 27.1147C135.82 27.6572 135.192 28.3281 134.235 29.1274C133.264 29.9125 132.337 30.3122 131.452 30.3122C131.337 30.3122 131.266 30.3122 131.223 30.2979C130.224 30.198 129.525 29.9268 129.139 29.47C128.754 29.0132 128.568 28.4708 128.568 27.857C128.568 27.2432 128.782 26.4724 129.21 25.5873C129.639 24.7023 130.096 23.8887 130.609 23.1749C131.123 22.4612 131.58 21.8046 132.008 21.2193C132.437 20.6341 132.651 20.32 132.651 20.2772C132.651 20.2344 132.608 20.2058 132.536 20.2058C132.237 20.2058 131.566 20.6912 130.509 21.6761C128.725 23.3462 127.184 24.9593 125.885 26.5009C125.542 26.9149 124.728 27.9426 123.458 29.6128C123.315 29.8126 123.072 29.9125 122.758 29.9125C122.444 29.9125 122.116 29.8554 121.773 29.727C121.431 29.5985 121.26 29.4415 121.26 29.2559C121.26 29.156 122.03 27.7856 123.586 25.1448C125.142 22.504 125.913 21.0623 125.913 20.8339C125.913 20.5913 125.77 20.4771 125.485 20.4771C125.199 20.4771 124.6 20.9053 123.701 21.7618C121.231 24.1171 119.318 26.4724 117.962 28.7991C117.877 28.9419 117.705 29.156 117.448 29.4415C117.191 29.727 116.963 29.8412 116.877 29.8412Z" fill="#292F36"/>
<path d="M145.185 18.807C145.185 19.4493 144.928 20.0203 144.4 20.5056C143.872 20.991 143.286 21.2336 142.615 21.2336C142.401 21.2336 142.259 21.1765 142.187 21.0766C142.116 20.9767 142.087 20.8339 142.087 20.6769C142.087 20.5199 142.102 20.3486 142.144 20.1916C141.788 20.3058 141.402 20.4914 140.974 20.734C140.546 20.9767 140.017 21.3336 139.389 21.8189C138.761 22.3042 138.447 22.6468 138.447 22.8895C138.447 22.9609 138.561 23.0037 138.79 23.0037C139.018 23.0037 139.375 22.918 139.846 22.761C140.317 22.604 140.66 22.5183 140.845 22.5183C141.031 22.5183 141.159 22.5326 141.217 22.5469C141.345 22.6183 141.473 22.761 141.631 22.9894C141.773 23.2178 141.845 23.4034 141.845 23.5318C141.845 23.6603 141.716 23.8316 141.459 24.0457C141.202 24.2598 140.917 24.4169 140.603 24.531C140.274 24.6452 140.06 24.7309 139.96 24.788C137.905 25.9442 136.877 26.7293 136.877 27.1576C136.877 27.9141 137.519 28.2995 138.818 28.2995C139.646 28.2995 140.489 28.0426 141.316 27.5144C142.03 27.0719 142.673 26.6151 143.244 26.1441C143.815 25.6873 144.171 25.4018 144.328 25.2876C144.485 25.1734 144.6 25.1306 144.671 25.1306C144.928 25.1306 145.056 25.4161 145.056 25.9871C145.056 26.558 145.028 26.9292 144.956 27.1005C144.885 27.286 144.7 27.5002 144.371 27.7714C142.287 29.47 140.303 30.3265 138.447 30.3265C137.448 30.3265 136.663 30.1838 136.063 29.9125C134.964 29.4129 134.422 28.6564 134.422 27.6286C134.422 26.2868 135.35 25.259 137.22 24.5739C136.849 24.4026 136.606 24.2027 136.506 23.9315C136.392 23.6746 136.349 23.2606 136.349 22.6896C136.349 22.1186 136.62 21.5191 137.148 20.8768C137.676 20.2344 138.333 19.7063 139.104 19.3066C140.817 18.3787 142.359 17.9219 143.7 17.9219C144.029 17.9219 144.343 17.9933 144.685 18.1503C145.028 18.3073 145.185 18.5215 145.185 18.807Z" fill="#292F36"/>
<path d="M0.482422 33.7952C4.23662 35.3654 8.06219 36.5787 11.9591 37.5066C15.8275 38.4772 19.7673 39.1624 23.7071 39.5906C25.677 39.8618 27.6611 39.8904 29.6168 40.076C31.6009 40.0902 33.5708 40.2473 35.5407 40.1331L38.4955 40.0617C39.4805 40.0474 40.4654 39.919 41.4503 39.8619C42.4353 39.7762 43.4202 39.7334 44.3909 39.6049L47.3172 39.1909C51.2427 38.7627 55.054 37.8491 58.851 36.75C62.6908 35.6937 66.3166 34.2948 70.1564 32.8388C74.0819 31.397 78.3357 30.4549 82.6466 30.9117C84.7736 31.1829 86.9147 31.8681 88.6562 33.1243C90.412 34.3662 91.6682 36.1362 92.4675 37.9919C91.2685 36.336 89.7696 34.98 88.0424 34.1378C86.3152 33.2956 84.4167 32.953 82.5324 33.0101C78.7211 33.0672 74.9669 34.3376 71.4411 35.9364C67.8582 37.7064 63.9755 39.3051 60.0643 40.6327C56.1245 41.9031 52.0563 42.9166 47.931 43.4305C39.7231 44.5154 31.3154 44.5296 23.2075 42.8881C19.1392 42.1458 15.1709 40.9895 11.3311 39.5193C7.51975 37.9919 3.79411 36.2076 0.482422 33.7952Z" fill="#292F36"/>
<path d="M136.989 10.0281C133.806 8.67204 130.566 7.61572 127.282 6.7878C124.014 5.91705 120.702 5.30325 117.376 4.87502C115.72 4.61807 114.036 4.56098 112.38 4.36113C110.71 4.31831 109.054 4.14701 107.384 4.21839C106.556 4.23266 105.714 4.23266 104.886 4.21839C104.058 4.21839 103.216 4.30403 102.388 4.33258C101.56 4.38968 100.718 4.40396 99.8896 4.4896L97.4059 4.78937C94.0799 5.06058 90.8539 5.74576 87.6278 6.58796C84.3589 7.37306 81.2614 8.48647 77.9639 9.59989C74.5809 10.7276 70.9123 11.4128 67.2295 10.8989C65.4166 10.5991 63.5895 9.95675 62.1478 8.81479C60.6775 7.6871 59.6783 6.14545 59.0645 4.53242C60.0779 5.9456 61.3341 7.10184 62.7758 7.81557C64.2176 8.5293 65.802 8.82906 67.3865 8.81479C70.584 8.81479 73.7529 7.78702 76.7506 6.50231C79.8054 5.04631 83.1599 3.7616 86.5001 2.70529C89.8689 1.69179 93.3804 0.920968 96.892 0.549831C103.901 -0.192445 111.067 -0.0211512 117.933 1.60615C121.373 2.33415 124.727 3.44756 127.939 4.81792C131.165 6.21682 134.277 7.84412 136.989 10.0281Z" fill="#292F36"/>
</svg>
