<svg width="164" height="44" viewBox="0 0 164 44" fill="none" xmlns="http://www.w3.org/2000/svg">
<path d="M34.9007 43.5479H8.08239C3.67524 43.5479 0.103516 39.9762 0.103516 35.569V8.7508C0.103516 4.34365 3.67524 0.771912 8.08239 0.771912H34.9007C39.3078 0.771912 42.8795 4.34365 42.8795 8.7508V35.569C42.8795 39.9762 39.3078 43.5479 34.9007 43.5479Z" fill="#292F36"/>
<path d="M29.1991 22.5535C29.9619 23.51 30.3494 24.6238 30.3494 25.883C30.3494 27.7355 29.7319 29.1884 28.4969 30.2175C27.2619 31.2467 25.4942 31.7794 23.1938 31.7794H13.1445V10.1674H22.9516C25.1552 10.1674 26.8503 10.6517 28.0489 11.6082C29.2476 12.5647 29.853 13.9329 29.853 15.7006C29.853 17.0082 29.5019 18.0858 28.8117 18.9575C28.1216 19.8293 27.2135 20.3862 26.0875 20.6526C27.4072 20.9674 28.4364 21.597 29.1991 22.5535ZM18.3629 19.0059H21.7893C23.6055 19.0059 24.5135 18.2311 24.5135 16.6813C24.5135 15.1315 23.5812 14.3566 21.7288 14.3566H18.3629V19.0059ZM24.9978 25.1566C24.9978 24.3817 24.7436 23.7763 24.2351 23.3405C23.7265 22.9046 23.0001 22.6866 22.0678 22.6866H18.375V27.5418H22.1041C24.0292 27.5297 24.9978 26.7427 24.9978 25.1566Z" fill="white"/>
<path d="M67.6648 31.7798L62.9912 23.6193H61.8047V31.7798H56.5742V10.1678H65.4975C67.2047 10.1678 68.6576 10.4584 69.832 11.0516C71.0186 11.6449 71.9024 12.4561 72.4957 13.4853C73.0889 14.5144 73.3795 15.6888 73.3795 17.0207C73.3795 18.5947 72.9436 19.9265 72.084 21.0283C71.2123 22.1301 69.9652 22.8807 68.3064 23.2924L73.44 31.7919H67.6648V31.7798ZM61.8047 20.0476H65.0374C66.0786 20.0476 66.8414 19.8175 67.3257 19.3574C67.81 18.8973 68.0643 18.2193 68.0643 17.3234C68.0643 16.4637 67.81 15.7978 67.3136 15.3014C66.8172 14.8171 66.0544 14.5628 65.0374 14.5628H61.8047V20.0476Z" fill="#292F36"/>
<path d="M97.0377 27.8449H88.9377L87.5938 31.7919H82.0969L90.0153 10.3373H96.0328L103.951 31.7919H98.3938L97.0377 27.8449ZM95.6938 23.8615L93.0059 15.9189L90.2817 23.8615H95.6938Z" fill="#292F36"/>
<path d="M132.803 31.7798H127.573L118.831 18.5099V31.7798H113.601V10.1678H118.831L127.573 23.5588V10.1678H132.803V31.7798Z" fill="#292F36"/>
<path d="M162.128 26.5736C161.22 28.2081 159.912 29.4915 158.217 30.4117C156.51 31.3318 154.512 31.7919 152.212 31.7919H144.051V10.1799H152.212C154.536 10.1799 156.546 10.6279 158.229 11.5239C159.924 12.4198 161.22 13.679 162.128 15.3135C163.036 16.9481 163.484 18.8126 163.484 20.9435C163.484 23.0503 163.024 24.9269 162.128 26.5736ZM156.498 25.4839C157.624 24.4063 158.193 22.8808 158.193 20.9314C158.193 18.97 157.624 17.4566 156.498 16.379C155.372 15.3014 153.786 14.7566 151.74 14.7566H149.27V27.1063H151.74C153.786 27.1063 155.372 26.5736 156.498 25.4839Z" fill="#292F36"/>
</svg>
